<?xml version="1.0" encoding="UTF-8"?>
<!DOCTYPE svg PUBLIC "-//W3C//DTD SVG 1.1//EN" "http://www.w3.org/Graphics/SVG/1.1/DTD/svg11.dtd">
<!-- Creator: CorelDRAW -->
<svg xmlns="http://www.w3.org/2000/svg" xml:space="preserve" width="1648px" height="200px" style="shape-rendering:geometricPrecision; text-rendering:geometricPrecision; image-rendering:optimizeQuality; fill-rule:evenodd; clip-rule:evenodd"
viewBox="0 0 1619.83 196.558"
 xmlns:xlink="http://www.w3.org/1999/xlink">
 <defs>
  <style type="text/css">
   <![CDATA[
    .fil7 {fill:none}
    .fil0 {fill:#0E9146}
    .fil3 {fill:#FEFEFE}
    .fil2 {fill:black}
    .fil4 {fill:#006CB1}
    .fil1 {fill:#1F1A17}
    .fil8 {fill:#DA251D}
    .fil9 {fill:#EF9A48}
    .fil6 {fill:#FEF400}
    .fil5 {fill:black}
    .fil10 {fill:black;fill-rule:nonzero}
    .fil11 {fill:#F5F7FB;fill-rule:nonzero}
   ]]>
  </style>
 </defs>
 <g id="Layer_x0020_1">
  <metadata id="CorelCorpID_0Corel-Layer"/>
  <g id="_382877792">
   <g>
    <path id="_245022520" class="fil0" d="M132.063 91.6203c-7.26764,0.239121 -15.0878,1.84332 -20.7153,6.77315 -2.70926,2.37263 -4.25774,4.98671 -5.3361,8.40752 -1.15962,3.67851 -1.68197,7.98152 -1.98609,11.8237 -0.165991,2.09521 -0.278587,4.09523 -0.660483,6.17186 -0.415559,2.25772 -3.51948,2.14744 -3.29661,4.0813 0.139294,1.20489 0.0510743,2.52934 2.77891,5.69827 0.906569,1.53919 2.2937,2.2937 3.97103,2.87525 2.85436,0.988984 9.45919,1.07256 12.353,0.278587 3.08767,-0.845047 6.52242,-2.8648 9.234,-4.57927 3.34769,-2.1161 7.34309,-6.42607 10.3019,-10.2822 2.95767,-3.85495 6.07784,-7.82481 11.66,-9.89564 2.02672,-0.751024 3.29545,-0.742899 5.4278,-0.852012 1.00407,-0.0510743 2.74756,0.161348 3.83986,0.374932 1.09113,0.213583 1.38365,0.294838 2.42371,0.61057 1.04006,0.315732 1.48232,0.436453 1.63786,0.470116 0.154384,0.0336626 -0.110274,-0.820671 -0.445739,-1.85957 -0.335465,-1.0389 -0.829957,-2.11378 -1.16658,-3.00177 -0.529315,-1.72376 -1.05631,-2.2995 -1.89555,-3.86075 -0.885675,-1.64831 -1.74349,-2.60247 -3.02499,-4.00701 -1.11899,-1.22578 -2.23102,-2.34361 -3.56011,-3.34537 -2.37379,-1.78876 -5.80854,-3.516 -9.22123,-4.52356 -3.41153,-1.00756 -8.1951,-1.49276 -12.3193,-1.35811z"/>
    <path id="_245022400" class="fil1" d="M96.4724 135.714c-0.0940231,-1.89091 2.67676,-1.89555 2.75685,-0.204297 0.0847369,1.80501 -2.67444,1.85493 -2.75685,0.204297zm1.00756 1.88627l-0.0963447 5.77488c-1.41267,-1.86073 -5.12716,-7.21772 -4.28792,-9.94904l1.62509 -3.36394c1.16078,-0.0174117 5.64139,-0.201976 6.38893,0.138133 1.19444,0.543245 1.906,3.01338 1.65875,4.72553l-4.55838 8.43422 -0.00232156 -5.91417c0.66977,-0.453865 1.4916,-0.755667 1.44865,-1.94198 -0.0800938,-2.15208 -3.51368,-2.21825 -3.59029,0.0174117 -0.0510743,1.47303 0.935588,1.22578 1.41383,2.07896zm-4.63615 -1.43008l-20.6491 -0.552531c7.43131,-0.920498 8.53521,-9.01925 12.0257,-10.0082 0.658162,-0.186885 3.76905,0.199654 4.8892,0.234477 1.46722,0.0441096 1.49624,0.560656 3.17241,2.28209 1.03658,1.06327 2.15673,1.42312 1.09578,3.28152 -0.898443,1.57286 -0.78933,2.89963 -0.533958,4.76268zm12.1023 -11.1551c1.23391,0.0301803 2.39237,0.124203 3.63672,0.0824153 1.018,-0.0336626 2.52353,-0.330822 3.34769,-0.308767 1.7818,0.0487527 2.95767,2.1161 3.84566,3.52064l8.19858 6.53751c-0.617535,0.516547 -1.38945,0.838083 -2.12423,1.14337 -4.10452,1.70867 -9.82135,2.8056 -14.0118,1.09926l-4.51311 -2.21477c-0.170635,-1.23043 -0.0243764,-1.88627 -0.508421,-3.02847 -1.11667,-2.63265 -2.31692,-2.15092 0.334304,-4.9159 0.646554,-0.674413 1.24087,-1.22578 1.79456,-1.91529zm-10.1847 -17.2329l0.828796 -0.0162509 5.23976 0.00232156 -0.00232156 21.8702 -6.06623 -0.0127686 0 -21.8435zm-35.2285 18.0687c8.77433,-0.0522351 11.3315,-3.3442 15.2666,-3.82825 0.999431,-0.123043 1.5508,0.539762 2.60015,1.07256l5.52299 2.14164c-3.39876,3.04356 -5.21422,9.38954 -11.2421,9.58455 -3.02963,0.0986662 -11.3013,-7.49167 -12.1476,-8.9705zm54.155 -1.37784c1.83403,-0.822992 3.46609,-1.11087 5.26762,-2.07083 2.56648,-1.36972 2.19619,-1.57518 5.31289,-0.284391l11.9421 2.97276c-0.643072,1.28846 -8.78594,9.01461 -11.4871,8.98675 -5.90953,-0.0615213 -7.59382,-6.48063 -11.0355,-9.60429zm-65.8719 -9.32338c0.673252,-0.358681 3.03079,-0.948357 4.05228,-1.3674 5.87122,-2.40397 8.45628,-5.69943 12.6397,-1.04586 1.73885,1.93386 2.05342,2.0511 3.9687,3.78878 2.68953,2.4388 3.86423,3.10857 5.65067,4.6791l-7.2363 2.78587c-1.56821,0.499135 -7.26067,1.7934 -8.6153,0.637268l-2.48755 -2.54327c-2.0894,-2.23566 -5.31753,-5.44638 -7.97223,-6.93449zm74.3595 5.23744c2.39817,-1.54732 3.68896,-2.88221 5.54504,-4.71392 6.3808,-6.29723 6.04302,-7.60775 12.5086,-4.27167 4.01165,2.06967 5.67273,2.25307 7.0912,2.93909 -4.72785,3.75164 -3.76209,3.24322 -7.63328,7.00182 -1.90252,1.84796 -1.8143,4.75571 -10.6293,1.85841 -0.912372,-0.299481 -6.42259,-2.49568 -6.88226,-2.81373zm-89.0376 -6.91708c0.565299,-0.683699 1.91877,-1.77135 2.77658,-2.43764 5.2119,-4.04532 11.6786,-8.25082 18.6955,-5.58567 2.14628,0.814867 5.18172,2.79283 6.23222,4.06969l-13.1679 4.7058c-1.44865,0.262336 -2.09405,-0.355198 -3.34885,-0.793973 -4.6791,-1.64134 -7.05406,-0.797455 -11.1876,0.0417881zm101.935 -5.09698c1.75742,-0.932106 2.88105,-2.58854 6.24964,-3.83057 5.28271,-1.94895 10.649,0.607088 14.764,3.57636 0.810224,0.583872 4.84509,3.69708 5.37441,4.55954l-7.77722 -0.757989c-2.30995,0.358681 -4.44462,1.96636 -6.60483,1.45097 -4.22408,-1.00988 -7.59846,-3.70869 -10.3379,-4.34015 -0.150901,-0.0348234 -0.806742,-0.152062 -0.845047,-0.164831 -0.457347,-0.152062 -0.078933,-0.00464312 -0.496813,-0.236799l-0.326179 -0.256532zm-103.436 5.11207c0.545566,-5.76791 4.26819,-10.1359 7.80624,-13.5916 2.29254,-2.23914 4.32506,-3.36742 7.43247,-1.79224 1.65179,0.836922 4.03603,4.18925 4.96117,5.75863l-11.7065 3.21072c-2.23566,0.93907 -7.91303,6.09409 -8.49342,6.41447zm112.041 -10.389c0.860137,-1.64018 3.11205,-4.97162 4.84741,-5.8097 1.15381,-0.557174 3.34653,-0.911212 4.39355,-0.244924 4.18577,2.66399 9.62634,9.64491 10.0628,15.7576l-3.80968 -3.36394c-4.41676,-3.50555 -9.09703,-6.68261 -15.4941,-6.33902zm-83.2766 -6.81145c1.80269,-0.226352 3.46725,-0.459669 5.20377,-0.800938 2.58389,-0.509582 3.62163,-1.01336 4.92519,-0.0847369 2.66167,1.89671 4.5224,2.9774 5.99194,5.95248 1.73304,3.50787 1.42195,6.44 0.92398,10.5793 -0.602444,5.01573 -0.567621,5.85961 0.532798,10.4424l-6.71163 -4.44927c-0.905408,-0.704593 -5.34771,-4.6733 -5.51834,-5.30824 -0.363324,-1.34302 1.14337,-7.45104 -4.173,-14.7628 -0.380736,-0.523511 -0.894961,-1.00407 -1.17471,-1.56821zm-15.6183 -0.0290195c0.450382,-0.369128 2.55604,-1.33838 3.08419,-1.5566 1.12247,-0.464312 2.75105,-1.17587 3.98031,-1.33606l5.19565 2.75105c1.45794,0.214744 2.09405,-0.00696468 2.93909,1.02497 0.460829,0.564139 1.23043,1.60071 1.67268,2.31343 2.0186,3.25018 3.71681,7.69597 3.24438,12.4946 -3.30822,-2.90659 -6.2032,-5.92694 -10.4145,-7.4255 -2.06038,-0.733612 -1.46722,-0.608248 -2.58273,-2.02556 -2.21593,-2.81721 -3.03428,-5.38485 -7.51605,-5.85265l0.396986 -0.3877zm86.2146 13.4755c-0.176438,-4.0279 1.61232,-8.65709 3.3651,-11.3083 4.17184,-6.30767 2.202,-0.146258 8.79406,-5.9606l7.78186 3.25715c-3.03776,1.05631 -3.79807,0.90889 -5.60192,3.40805 -1.81894,2.51657 -2.06735,3.84566 -4.18577,4.61178 -2.21128,0.798616 -4.12193,2.05806 -5.52415,3.28152l-4.56767 4.1463 -0.0615213 -1.43588zm-12.5202 11.9038c2.58506,-7.26416 -1.61116,-13.898 1.24552,-20.6758 1.32561,-3.14455 3.35117,-4.34364 5.75863,-6.17883 0.93907,-0.71504 0.901925,-0.627982 2.20432,-0.40163 2.92284,0.507261 4.48409,0.982019 7.73543,1.12596 -0.746381,1.01568 -1.42079,1.85957 -2.05458,2.97276 -0.575746,1.01104 -1.1364,2.02672 -1.60884,3.20259 -0.962286,2.39353 -1.59027,5.22118 -1.59027,8.05116l-1.80501 4.27283c-1.05747,1.04238 -1.82474,1.70286 -3.00758,2.85552 -1.46374,1.42544 -4.89733,3.92111 -6.87762,4.77545zm-29.3503 3.38367c-2.58157,0.00232156 -8.94264,-0.677895 -10.0071,-2.3854 -1.83055,-2.93445 -1.2281,-7.34889 -0.80442,-10.9311 0.489849,-4.12889 0.720844,-7.16085 -1.0389,-10.6838 -2.0836,-4.173 -5.2386,-5.15154 -5.97221,-6.22294l9.65884 2.74176c2.1103,1.38945 4.1672,3.84914 5.42896,6.71975 2.13816,4.85902 2.60247,10.4598 2.18807,15.9085 -0.410916,5.39414 -0.69995,2.80909 0.546727,4.85322zm16.8452 -0.780044c0.0266979,-0.0557174 0.0731291,-0.120721 0.099827,-0.156705 0.523511,-0.719683 0.516547,-0.467794 0.683699,-0.871745 0.179921,-0.432971 -0.235638,-3.09696 -0.29832,-4.03951 -0.8346,-12.3344 2.8265,-25.7658 18.5609,-25.1645l-0.973894 0.810224c-6.31116,4.72089 -6.75922,8.72674 -5.78416,17.0043 0.329661,2.79516 0.792812,9.16899 -1.38945,10.6049 -2.2879,1.50437 -7.82365,1.91529 -10.8986,1.81314zm45.2274 -29.2574c-2.15325,-1.24552 -4.86483,-2.54675 -7.58917,-3.30474l-3.77137 -11.8574c0.0858977,2.60827 1.40106,5.05635 0.221709,7.95482 -0.98318,2.41442 -3.74003,2.46549 -6.75109,2.25075 -6.44697,-0.46199 -12.5956,-4.78821 -22.0815,1.18632 -3.33144,2.09753 -7.05057,5.76211 -8.83353,9.19221 -1.27221,2.44692 -1.43821,3.76905 -2.30995,6.48876l-5.22815 0.0383057c-1.92573,-4.81375 -2.59898,-7.78302 -6.48992,-11.3466 -2.73363,-2.50264 -6.35991,-5.357 -11.4639,-6.34134 -6.53403,-1.26061 -9.89564,1.1097 -15.6879,1.59491 -9.52071,0.798616 -6.66171,-5.73773 -6.28678,-10.2056 -3.35465,4.95885 -5.36396,6.48992 -3.76789,12.0048l-7.5439 3.25831c-6.22526,3.18053 -12.873,11.3571 -13.0657,19.4535 3.4301,-1.14685 5.88167,-2.25539 9.64259,-1.97216 3.58449,0.269301 6.26356,1.78876 8.44467,3.28617 1.87234,1.28382 4.65937,3.9037 6.19508,5.53692l5.65648 5.8689c1.90136,1.89323 3.82361,3.76092 6.33669,5.39878 2.43067,1.5833 4.38426,2.84275 7.43827,4.08478 4.54329,1.8468 9.956,2.69301 14.8812,1.14917 1.57053,-0.49217 2.70113,-1.1956 3.9304,-1.64366 0.662805,1.3465 3.53109,6.9194 4.81956,7.17478 4.54097,-5.17359 3.85611,-6.28794 5.2386,-8.4911 3.22581,1.62393 4.74178,2.68836 8.5828,2.96579 6.25312,0.450382 12.6258,-2.43996 17.2898,-5.82943 3.51368,-2.55255 6.21945,-5.28271 9.02738,-8.35761 0.510743,-0.559496 0.822992,-1.06327 1.33606,-1.60768 0.528155,-0.559496 0.870584,-0.811385 1.34883,-1.3674 6.03837,-7.02968 13.5057,-11.869 23.2945,-6.88226 -1.33025,-5.17243 -1.51598,-8.17885 -4.21827,-11.9316 -0.910051,-1.26293 -1.49857,-1.89207 -2.50264,-2.94258 -1.76322,-1.84332 -3.51716,-3.31867 -6.09293,-4.80679z"/>
    <polygon id="_245022232" class="fil2" points="97.8432,0 104.829,2.27281 111.391,4.76036 118.843,7.79695 125.214,10.6722 131.984,13.941 138.051,17.1157 145.509,21.5139 151.83,25.6695 158.833,30.7502 163.719,34.6922 170.033,40.1746 175.758,45.7765 185.934,57.5201 195.359,70.9271 195.357,78.2725 195.018,85.2813 194.434,93.3081 193.668,100.255 192.651,107.704 191.507,114.455 189.628,122.908 187.63,130.202 184.961,138.433 182.723,144.299 179.459,151.998 175.901,159.174 167.877,172.48 158.039,185.588 151.051,187.855 144.281,189.699 136.467,191.624 129.623,193.042 122.224,194.377 115.45,195.374 106.831,196.2 99.2756,196.554 90.6232,196.558 84.3527,196.242 76.0218,195.517 68.0971,194.35 52.9629,190.831 37.4572,185.525 33.1414,179.581 29.2957,173.712 25.0508,166.875 21.5858,160.804 18.0304,154.18 14.988,148.046 11.5405,140.103 8.86951,133.026 6.19044,124.799 4.55374,118.738 2.66863,110.592 1.32909,102.694 -0,87.2128 0.254211,70.8261 4.57463,64.8852 8.96818,59.4133 14.158,53.2635 18.8615,48.0922 24.063,42.6644 28.9568,37.8751 35.4456,32.1408 41.3493,27.4153 48.3465,22.3241 53.6048,18.8952 60.7703,14.584 67.8673,10.8707 82.1808,4.82188 "/>
    <polygon id="_245022088" class="fil3" points="97.8177,3.32215 103.777,5.26181 110.231,7.70873 117.594,10.7082 123.874,13.5416 130.561,16.7709 136.511,19.8841 143.834,24.2034 150.028,28.2754 156.907,33.2668 161.686,37.1206 167.886,42.5043 173.451,47.9495 183.436,59.4737 192.191,71.9277 192.189,78.1959 191.857,85.0898 191.279,93.019 190.524,99.8676 189.52,107.225 188.398,113.847 186.553,122.145 184.594,129.295 181.973,137.379 179.784,143.115 176.58,150.675 173.121,157.65 165.247,170.708 156.107,182.884 150.146,184.819 143.486,186.632 135.767,188.534 129.021,189.932 121.712,191.25 115.068,192.23 106.606,193.039 99.2002,193.386 90.7021,193.39 84.5709,193.082 76.3909,192.37 68.6879,191.236 53.8358,187.783 39.4317,182.853 35.7497,177.781 31.9667,172.008 27.7728,165.254 24.3578,159.269 20.8464,152.727 17.8621,146.71 14.4761,138.913 11.8585,131.977 9.22703,123.896 7.62632,117.969 5.77604,109.969 4.47364,102.293 3.16893,87.1014 3.40573,71.8778 7.09236,66.8086 11.4139,61.4273 16.5411,55.3518 21.1773,50.2548 26.3149,44.8931 31.1147,40.1955 37.485,34.5657 43.2715,29.933 50.1445,24.9335 55.2868,21.58 62.3222,17.3467 69.2207,13.7378 83.2662,7.8016 "/>
    <polygon id="_245021968" class="fil4" points="97.791,6.64546 102.725,8.24966 109.073,10.6571 116.345,13.6194 122.534,16.4123 129.138,19.6009 134.972,22.6538 142.158,26.8918 148.228,30.8825 154.981,35.7833 159.652,39.5501 165.737,44.8339 171.142,50.1224 180.936,61.4261 189.025,72.9294 189.022,78.1181 188.695,84.8982 188.125,92.7312 187.38,99.4799 186.389,106.746 185.288,113.239 183.479,121.383 181.559,128.388 178.985,136.325 176.846,141.932 173.7,149.352 170.341,156.126 162.617,168.934 154.176,180.181 149.24,181.783 142.691,183.566 135.066,185.444 128.417,186.822 121.2,188.124 114.686,189.084 106.381,189.879 99.1259,190.218 90.7811,190.223 84.788,189.921 76.7588,189.223 69.2776,188.122 54.7098,184.733 41.405,180.181 38.3568,175.981 34.6377,170.304 30.4948,163.633 27.1297,157.736 23.6613,151.274 20.735,145.375 17.4128,137.722 14.8475,130.927 12.2636,122.992 10.7001,117.198 8.88228,109.347 7.61819,101.892 6.33902,86.99 6.55724,72.9294 9.60893,68.7321 13.8597,63.4401 18.9242,57.4388 23.493,52.4161 28.5656,47.1207 33.2726,42.5159 39.5245,36.9906 45.1938,32.4519 51.9425,27.5418 56.9687,24.2638 63.8742,20.1105 70.5742,16.6038 84.3515,10.7813 "/>
    <g>
     <g>
      <g>
       <g>
        <path id="_245021944" class="fil2" d="M101.885 133.378c-0.943713,-1.10158 -1.93386,-2.4063 -2.45505,-3.76673 -0.316893,-0.831118 -0.365645,-1.45097 -0.465472,-2.30647 -0.0533958,-0.466633 0.0220548,-0.915855 0.251889,-1.32677 0.496813,-0.889157 1.48696,-1.25596 2.26004,-1.83984 0.399308,-0.302963 0.698789,-0.637268 0.792812,-1.14801 0.370289,-2.01511 0.487527,-4.05344 0.650036,-6.09177 0.314571,-3.9687 0.821832,-8.19394 2.01976,-11.999 1.11899,-3.55198 2.75337,-6.29839 5.56942,-8.76504 5.77255,-5.05519 13.7413,-6.72207 21.2121,-6.96816 1.49044,-0.0487527 2.98785,-0.0185725 4.4748,0.0766114 2.67095,0.171795 5.52415,0.553692 8.09527,1.31284 3.25482,0.961125 6.76734,2.61291 9.47312,4.65008 1.35463,1.02149 2.52702,2.19503 3.66806,3.44519 1.25596,1.37552 2.24727,2.50728 3.13759,4.16488 0.337787,0.630303 0.706915,1.24436 1.04238,1.87466 0.364485,0.68602 0.652358,1.37088 0.905408,2.10565 0.348234,1.018 0.836922,1.98145 1.17123,3.01454 0.139294,0.435292 0.28323,0.876388 0.40279,1.31748 0.140454,0.522351 0.277426,1.20257 -0.354038,1.49973 -0.207779,0.0986662 -0.37261,0.0928623 -0.526994,0.0591997 -0.553692,-0.120721 -1.15381,-0.320375 -1.69822,-0.485206 -0.379575,-0.116078 -0.75915,-0.232156 -1.14337,-0.330822 -0.398147,-0.102149 -0.800938,-0.182242 -1.20257,-0.261175 -0.56646,-0.110274 -1.14453,-0.19385 -1.71679,-0.257693 -0.618695,-0.0696468 -1.31052,-0.13465 -1.93154,-0.103309 -0.904247,0.0464312 -1.82823,0.068486 -2.72551,0.183403 -0.860137,0.111435 -1.65295,0.319214 -2.46666,0.621017 -5.14806,1.90948 -8.08018,5.42896 -11.3072,9.63447 -1.04006,1.35579 -2.13351,2.6756 -3.2734,3.94897 -1.14569,1.27918 -2.34826,2.52353 -3.61699,3.68315 -1.12131,1.02497 -2.33084,2.02556 -3.61583,2.83694 -2.83346,1.78992 -6.20901,3.78646 -9.44758,4.67446 -0.922819,0.25305 -1.9385,0.376092 -2.8915,0.455025 -1.16774,0.0963447 -2.34826,0.123043 -3.51832,0.100988 -1.17355,-0.0220548 -2.35754,-0.0940231 -3.5218,-0.241442 -0.95416,-0.120721 -1.98029,-0.294838 -2.89034,-0.61057 -1.81662,-0.629142 -3.34072,-1.47535 -4.35757,-3.15732z"/>
       </g>
       <path id="_245021632" class="fil0" d="M131.746 89.9581c-7.26648,0.23796 -15.0878,1.84332 -20.7153,6.77199 -2.70926,2.37263 -4.25774,4.98671 -5.3361,8.40752 -1.15962,3.67967 -1.68081,7.98268 -1.98609,11.8237 -0.165991,2.09521 -0.278587,4.09523 -0.660483,6.17186 -0.415559,2.25772 -3.51948,2.1486 -3.29661,4.0813 0.139294,1.20605 0.0510743,2.5305 2.77891,5.69943 0.906569,1.53803 2.29486,2.29254 3.97103,2.87409 2.85436,0.988984 9.46035,1.07256 12.3542,0.279748 3.08651,-0.846208 6.52126,-2.86596 9.23284,-4.58043 3.34885,-2.11494 7.34309,-6.42491 10.3019,-10.281 2.95767,-3.85611 6.07784,-7.82481 11.66,-9.89564 2.02672,-0.752185 3.29545,-0.742899 5.4278,-0.852012 1.00407,-0.0510743 2.74756,0.161348 3.83986,0.373771 1.09113,0.213583 1.38365,0.295999 2.42371,0.611731 1.04006,0.315732 1.48232,0.435292 1.63786,0.470116 0.154384,0.0336626 -0.110274,-0.820671 -0.445739,-1.86073 -0.335465,-1.0389 -0.829957,-2.11378 -1.16658,-3.00061 -0.529315,-1.72376 -1.05631,-2.2995 -1.89555,-3.86191 -0.885675,-1.64715 -1.74349,-2.60247 -3.02499,-4.00585 -1.11899,-1.22578 -2.23102,-2.34477 -3.56011,-3.34653 -2.37379,-1.7876 -5.80854,-3.51484 -9.22007,-4.52356 -3.41269,-1.00756 -8.19626,-1.49276 -12.3205,-1.35695z"/>
       <path id="_245021488" class="fil5" d="M102.573 123.257c0.369128,0.393504 0.432971,0.256532 1.20605,0.256532l1.00291 -0.0696468c0.602444,-0.0220548 1.59259,0.0754506 2.13467,-0.010447 0.400469,-0.0638429 0.608248,-0.0464312 1.02149,-0.0510743 0.776561,-0.010447 2.69301,-0.549049 3.15732,-0.419041 0.127686,0.0359842 0.271622,0.0975055 0.394665,0.147419 2.57345,1.05399 4.97858,6.60483 7.64257,8.38083 2.35754,1.5717 3.4568,1.56705 6.29839,2.27164l0.210101 -0.333144c-0.311089,-0.531637 -0.364485,-0.363324 -0.935588,-0.538602 -2.90775,-0.897282 -2.7081,-0.376092 -5.41271,-2.16369 -1.59839,-1.05631 -3.71681,-4.91706 -5.44057,-6.62689 -0.251889,-0.249568 -0.41672,-0.530476 -0.703432,-0.771918l-0.854333 -0.687181c0.26814,-0.123043 0.724326,-0.206619 1.03077,-0.309928 0.326179,-0.110274 0.654679,-0.234477 0.988984,-0.350555 0.562978,-0.197332 1.40106,-0.544405 1.93502,-0.814867l3.5485 -1.88278c0.330822,0.0185725 0.812545,0.146258 1.15149,0.200815 3.58449,0.567621 7.87589,3.10392 11.6589,3.49278l5.23395 0.263497 0.20894 -0.407433 -0.229834 -0.308767c-0.892639,-0.10447 -2.16021,0.0266979 -3.07142,-0.0800938 -0.504939,-0.058039 -1.0714,-0.0301803 -1.8468,-0.16367 -3.81316,-0.658162 -6.41098,-1.89787 -9.97458,-3.09928 -0.679056,-0.229834 -1.39874,-0.364485 -2.10217,-0.511904 0.13465,-0.212423 0.531637,-0.420202 0.7754,-0.598962 0.460829,-0.338948 4.84625,-4.38658 5.15734,-4.69767 0.942553,-0.942553 1.8735,-1.8735 2.81605,-2.81605 0.470116,-0.470116 1.00291,-0.868263 1.47419,-1.3407l1.44285 -1.3732c0.787008,-0.0928623 1.65759,-0.0266979 2.39121,0.120721 1.81198,0.365645 3.88861,1.32677 5.61585,2.02788l7.26996 2.93909 0.326179 -0.211262c0,-0.638429 -0.529315,-0.662805 -1.49508,-1.05283 -0.604766,-0.242603 -1.19328,-0.513064 -1.79921,-0.748703 -2.43996,-0.949517 -4.87759,-1.89439 -7.29898,-2.8915 -1.61232,-0.663966 -2.4713,-0.835761 -4.15095,-0.956482 0.585033,-0.739416 2.27281,-1.87118 3.06678,-2.47478 0.911212,-0.692985 2.74873,-1.5241 3.82129,-1.81082 3.00874,-0.805581 4.25774,-0.752185 7.26648,-0.00116078 2.13003,0.531637 4.05692,1.41151 6.04302,2.40513 0.645393,0.322697 1.21534,0.660483 1.83287,0.982019 1.3349,0.696468 3.96058,2.498 5.0018,3.44751 0.493331,0.450382 1.00059,0.869424 1.47303,1.34186 0.73013,0.73013 0.579229,0.665126 1.47187,1.37088l0.254211 -0.269301 0 -0.0800938c-0.0266979,-0.25305 -0.124203,-0.359842 -0.316893,-0.552531 -0.494492,-0.49217 -0.955321,-1.07256 -1.47419,-1.54268 -2.09056,-1.89207 -4.52007,-3.64949 -7.08075,-4.9217 -1.97332,-0.979698 -3.40457,-1.7342 -5.53343,-2.44344 -1.56241,-0.52119 -3.25482,-0.944874 -4.90197,-1.0656 -0.634946,-0.0464312 -1.31052,0.0220548 -1.94547,0.0673252 0.537441,-0.820671 1.05399,-1.67617 1.56937,-2.52005 0.540923,-0.889157 1.0122,-1.62857 1.76555,-2.39004 0.587354,-0.594319 1.7934,-1.27337 2.61756,-1.47303 0.607088,-0.147419 1.1956,-0.175278 1.79805,-0.279748 0.956482,-0.167152 0.702271,-0.0232156 1.63902,-0.437614l0.00928623 -0.219387 -0.230995 -0.23796c-0.304124,-0.150901 -3.48814,0.441096 -3.91299,0.61057 -2.87061,1.14337 -3.98728,3.49278 -5.49629,5.96873 -0.323857,0.531637 -0.503778,1.12247 -1.08533,1.26061 -3.25018,0.77424 -4.89152,2.10565 -7.40113,4.06389l-3.6077 3.29777c0,-1.841 -0.0116078,-3.54154 0.28323,-5.28038 0.366806,-2.15557 1.0447,-4.32042 2.13119,-6.18231 0.596641,-1.02149 2.72783,-3.89209 3.49046,-4.9693l-0.334304 -0.335465c-0.526994,0.143937 -2.24727,2.69765 -2.63497,3.27804 -0.905408,1.36043 -1.53571,2.13235 -2.17182,3.72842 -0.734773,1.8468 -0.999431,3.36046 -1.34186,5.29547 -0.219387,1.24552 -0.0870584,4.66749 -0.160188,5.06912 -0.0673252,0.37261 -3.60306,3.63556 -4.13934,4.173 -0.468955,0.468955 -1.02032,0.879871 -1.47535,1.3407 -0.442257,0.448061 -0.947196,0.892639 -1.44169,1.30704 -0.516547,0.434131 -1.00407,0.857816 -1.54268,1.27337l-3.53573 2.09637c0.225191,-0.943713 0.862459,-1.71911 0.93791,-3.75628l0.0673252 -1.0714c-0.00232156,-0.429488 0.0696468,-0.696468 0.0673252,-1.13989l0.00348234 -1.74581c-0.010447,-0.260015 -0.0638429,-0.269301 -0.0731291,-0.530476 -0.0139294,-0.37261 0.0197332,-0.771918 0.0058039,-1.14569l-0.190368 -3.36278c-0.109113,-0.680217 -0.0116078,-3.74816 -0.0139294,-4.6791 -0.00116078,-0.676734 0.114917,-1.46374 0.240281,-2.10681 0.226352,-1.16658 0.8938,-2.15557 1.56821,-3.12366 0.308767,-0.442257 0.777722,-0.861298 1.07488,-1.27337 0.499135,-0.692985 3.94897,-3.73423 4.84393,-4.56302l-0.234477 -0.323857c-0.591997,-0.0162509 -0.716201,0.451543 -1.15033,0.770757 -0.329661,0.243764 -0.616374,0.542084 -0.951839,0.790491 -0.579229,0.429488 -1.33838,1.11783 -1.85376,1.63322 -1.17587,1.17587 -2.2612,2.2879 -3.13643,3.76905 -1.1364,1.92573 -1.13756,3.49395 -1.13756,5.76791 0,0.802098 -0.0963447,2.73363 0.0266979,3.39296 0.0975055,0.526994 0.00348234,1.08649 0.0940231,1.64831 0.0359842,0.225191 0.0139294,0.616374 0.0127686,0.858977l0.130007 2.4179c0.0882192,0.751024 0.0301803,1.79456 -0.058039,2.54675l-0.0754506 1.66804c-0.0232156,0.212423 -0.08938,0.532798 -0.123043,0.748703 -0.179921,1.1306 -0.391183,1.57518 -0.811385,2.60827 -0.29832,0.732452 -0.111435,0.579229 -0.826475,0.915855 -2.59434,1.21882 -5.5079,1.85841 -8.36109,1.96404l-1.67384 0.0696468c-0.609409,0 -1.0981,0.0673252 -1.67617,0.0673252 -0.56646,-0.00116078 -1.17471,-0.183403 -1.27337,0.434131l0 0.0464312z"/>
      </g>
      <polygon id="_245021368" class="fil2" points="164.042,110.965 164.884,113.167 162.684,112.546 "/>
     </g>
     <g>
      <g>
       <g>
        <path id="_245021272" class="fil2" d="M93.7944 133.378c0.943713,-1.10158 1.93386,-2.4063 2.45389,-3.76673 0.319214,-0.831118 0.366806,-1.45097 0.466633,-2.30647 0.0533958,-0.466633 -0.0220548,-0.915855 -0.251889,-1.32677 -0.496813,-0.889157 -1.48812,-1.25596 -2.25888,-1.83984 -0.400469,-0.302963 -0.698789,-0.637268 -0.793973,-1.14801 -0.370289,-2.01511 -0.487527,-4.05344 -0.650036,-6.09177 -0.314571,-3.9687 -0.821832,-8.19394 -2.01976,-11.999 -1.11899,-3.55198 -2.75337,-6.29839 -5.56942,-8.76504 -5.77139,-5.05519 -13.7413,-6.72207 -21.2121,-6.96816 -1.49044,-0.0487527 -2.98785,-0.0185725 -4.4748,0.0766114 -2.67095,0.171795 -5.52531,0.553692 -8.09527,1.31284 -3.25366,0.961125 -6.76734,2.61291 -9.47196,4.65008 -1.35579,1.02149 -2.52702,2.19503 -3.66922,3.44519 -1.25596,1.37552 -2.24611,2.50728 -3.13759,4.16488 -0.337787,0.630303 -0.706915,1.24436 -1.04122,1.87466 -0.365645,0.68602 -0.653519,1.37088 -0.905408,2.10565 -0.349395,1.018 -0.838083,1.98145 -1.17123,3.01454 -0.140454,0.435292 -0.285552,0.876388 -0.403951,1.31748 -0.140454,0.522351 -0.277426,1.20257 0.354038,1.49973 0.207779,0.0986662 0.37261,0.0928623 0.526994,0.0591997 0.553692,-0.120721 1.15498,-0.320375 1.69822,-0.485206 0.379575,-0.116078 0.76031,-0.232156 1.14453,-0.330822 0.396986,-0.102149 0.799777,-0.182242 1.20141,-0.261175 0.56646,-0.110274 1.14453,-0.19385 1.71679,-0.257693 0.617535,-0.0696468 1.31052,-0.13465 1.93038,-0.103309 0.905408,0.0464312 1.82939,0.068486 2.72783,0.183403 0.860137,0.111435 1.65295,0.319214 2.46549,0.621017 5.14806,1.90948 8.08018,5.42896 11.3072,9.63447 1.04006,1.35579 2.13351,2.6756 3.2734,3.94897 1.14685,1.27918 2.34942,2.52353 3.61699,3.68315 1.12131,1.02497 2.33084,2.02556 3.61583,2.83694 2.8323,1.78992 6.20901,3.78646 9.44758,4.67446 0.92398,0.25305 1.9385,0.376092 2.8915,0.455025 1.16774,0.0963447 2.34826,0.123043 3.51948,0.100988 1.17355,-0.0220548 2.35638,-0.0940231 3.52064,-0.241442 0.95416,-0.120721 1.98029,-0.294838 2.89034,-0.61057 1.81778,-0.629142 3.34072,-1.47535 4.35757,-3.15732z"/>
       </g>
       <path id="_245020960" class="fil0" d="M63.9334 89.9581c7.26764,0.23796 15.0878,1.84332 20.7153,6.77199 2.70926,2.37263 4.25774,4.98671 5.3361,8.40752 1.15962,3.67967 1.68197,7.98268 1.98609,11.8237 0.165991,2.09521 0.278587,4.09523 0.660483,6.17186 0.415559,2.25772 3.51948,2.1486 3.29661,4.0813 -0.139294,1.20605 -0.0510743,2.5305 -2.77891,5.69943 -0.906569,1.53803 -2.2937,2.29254 -3.97103,2.87409 -2.85436,0.988984 -9.45919,1.07256 -12.353,0.279748 -3.08767,-0.846208 -6.52242,-2.86596 -9.234,-4.58043 -3.34769,-2.11494 -7.34309,-6.42491 -10.3019,-10.281 -2.95767,-3.85611 -6.07784,-7.82481 -11.66,-9.89564 -2.02672,-0.752185 -3.29545,-0.742899 -5.4278,-0.852012 -1.00407,-0.0510743 -2.74756,0.161348 -3.8387,0.373771 -1.09229,0.213583 -1.38481,0.295999 -2.42487,0.611731 -1.04006,0.315732 -1.48232,0.435292 -1.63786,0.470116 -0.154384,0.0336626 0.110274,-0.820671 0.445739,-1.86073 0.335465,-1.0389 0.829957,-2.11378 1.16658,-3.00061 0.529315,-1.72376 1.05631,-2.2995 1.89555,-3.86191 0.885675,-1.64715 1.74349,-2.60247 3.02499,-4.00585 1.11899,-1.22578 2.23102,-2.34477 3.56011,-3.34653 2.37379,-1.7876 5.80854,-3.51484 9.22123,-4.52356 3.41153,-1.00756 8.1951,-1.49276 12.3193,-1.35695z"/>
       <path id="_245020816" class="fil5" d="M93.1073 123.257c-0.370289,0.393504 -0.432971,0.256532 -1.20721,0.256532l-1.00291 -0.0696468c-0.602444,-0.0220548 -1.59259,0.0754506 -2.13467,-0.010447 -0.400469,-0.0638429 -0.608248,-0.0464312 -1.02149,-0.0510743 -0.776561,-0.010447 -2.69301,-0.549049 -3.15732,-0.419041 -0.127686,0.0359842 -0.271622,0.0975055 -0.393504,0.147419 -2.57461,1.05399 -4.97974,6.60483 -7.64373,8.38083 -2.35638,1.5717 -3.4568,1.56705 -6.29723,2.27164l-0.211262 -0.333144c0.31225,-0.531637 0.364485,-0.363324 0.935588,-0.538602 2.90775,-0.897282 2.7081,-0.376092 5.41271,-2.16369 1.59839,-1.05631 3.71681,-4.91706 5.44057,-6.62689 0.251889,-0.249568 0.41672,-0.530476 0.703432,-0.771918l0.855494 -0.687181c-0.269301,-0.123043 -0.725487,-0.206619 -1.03193,-0.309928 -0.326179,-0.110274 -0.654679,-0.234477 -0.988984,-0.350555 -0.562978,-0.197332 -1.3999,-0.544405 -1.93502,-0.814867l-3.54734 -1.88278c-0.331983,0.0185725 -0.813706,0.146258 -1.15265,0.200815 -3.58333,0.567621 -7.87589,3.10392 -11.6589,3.49278l-5.23395 0.263497 -0.20894 -0.407433 0.230995 -0.308767c0.891478,-0.10447 2.15905,0.0266979 3.07026,-0.0800938 0.504939,-0.058039 1.07256,-0.0301803 1.8468,-0.16367 3.81316,-0.658162 6.41098,-1.89787 9.97458,-3.09928 0.679056,-0.229834 1.3999,-0.364485 2.10217,-0.511904 -0.13465,-0.212423 -0.531637,-0.420202 -0.77424,-0.598962 -0.460829,-0.338948 -4.84741,-4.38658 -5.1585,-4.69767 -0.941392,-0.942553 -1.8735,-1.8735 -2.81605,-2.81605 -0.470116,-0.470116 -1.00175,-0.868263 -1.47419,-1.3407l-1.44169 -1.3732c-0.788169,-0.0928623 -1.65759,-0.0266979 -2.39237,0.120721 -1.81198,0.365645 -3.88861,1.32677 -5.61585,2.02788l-7.26996 2.93909 -0.326179 -0.211262c0,-0.638429 0.529315,-0.662805 1.49508,-1.05283 0.604766,-0.242603 1.19328,-0.513064 1.79921,-0.748703 2.43996,-0.949517 4.87875,-1.89439 7.29898,-2.8915 1.61232,-0.663966 2.4713,-0.835761 4.15095,-0.956482 -0.583872,-0.739416 -2.27281,-1.87118 -3.06678,-2.47478 -0.911212,-0.692985 -2.74873,-1.5241 -3.82012,-1.81082 -3.0099,-0.805581 -4.2589,-0.752185 -7.26764,-0.00116078 -2.13003,0.531637 -4.05576,1.41151 -6.04302,2.40513 -0.645393,0.322697 -1.21534,0.660483 -1.83287,0.982019 -1.3349,0.696468 -3.96058,2.498 -5.00064,3.44751 -0.494492,0.450382 -1.00175,0.869424 -1.47419,1.34186 -0.73013,0.73013 -0.579229,0.665126 -1.47187,1.37088l-0.254211 -0.269301 0 -0.0800938c0.0266979,-0.25305 0.124203,-0.359842 0.318053,-0.552531 0.493331,-0.49217 0.95416,-1.07256 1.47419,-1.54268 2.0894,-1.89207 4.51891,-3.64949 7.07959,-4.9217 1.97332,-0.979698 3.40457,-1.7342 5.53343,-2.44344 1.56241,-0.52119 3.25482,-0.944874 4.90197,-1.0656 0.634946,-0.0464312 1.31052,0.0220548 1.94547,0.0673252 -0.537441,-0.820671 -1.05399,-1.67617 -1.56937,-2.52005 -0.540923,-0.889157 -1.0122,-1.62857 -1.76555,-2.39004 -0.587354,-0.594319 -1.79224,-1.27337 -2.61756,-1.47303 -0.607088,-0.147419 -1.19444,-0.175278 -1.79805,-0.279748 -0.956482,-0.167152 -0.702271,-0.0232156 -1.63902,-0.437614l-0.00928623 -0.219387 0.230995 -0.23796c0.305285,-0.150901 3.48814,0.441096 3.91299,0.61057 2.87061,1.14337 3.98728,3.49278 5.49629,5.96873 0.323857,0.531637 0.503778,1.12247 1.08533,1.26061 3.25018,0.77424 4.89152,2.10565 7.40229,4.06389l3.6077 3.29777c0,-1.841 0.010447,-3.54154 -0.284391,-5.28038 -0.365645,-2.15557 -1.04354,-4.32042 -2.13119,-6.18231 -0.59548,-1.02149 -2.72783,-3.89209 -3.49046,-4.9693l0.335465 -0.335465c0.525833,0.143937 2.24727,2.69765 2.63381,3.27804 0.905408,1.36043 1.53571,2.13235 2.17182,3.72842 0.734773,1.8468 0.999431,3.36046 1.34186,5.29547 0.220548,1.24552 0.0870584,4.66749 0.160188,5.06912 0.0673252,0.37261 3.60306,3.63556 4.13934,4.173 0.468955,0.468955 1.02032,0.879871 1.47535,1.3407 0.442257,0.448061 0.948357,0.892639 1.44169,1.30704 0.516547,0.434131 1.00523,0.857816 1.54268,1.27337l3.53573 2.09637c-0.22403,-0.943713 -0.862459,-1.71911 -0.936749,-3.75628l-0.068486 -1.0714c0.00232156,-0.429488 -0.068486,-0.696468 -0.0673252,-1.13989l-0.00232156 -1.74581c0.00928623,-0.260015 0.0626821,-0.269301 0.0719683,-0.530476 0.0139294,-0.37261 -0.0185725,-0.771918 -0.0058039,-1.14569l0.190368 -3.36278c0.109113,-0.680217 0.0127686,-3.74816 0.0139294,-4.6791 0.00116078,-0.676734 -0.114917,-1.46374 -0.240281,-2.10681 -0.226352,-1.16658 -0.8938,-2.15557 -1.56821,-3.12366 -0.308767,-0.442257 -0.777722,-0.861298 -1.07488,-1.27337 -0.499135,-0.692985 -3.94897,-3.73423 -4.84393,-4.56302l0.235638 -0.323857c0.590837,-0.0162509 0.716201,0.451543 1.14917,0.770757 0.329661,0.243764 0.616374,0.542084 0.953,0.790491 0.578068,0.429488 1.33722,1.11783 1.8526,1.63322 1.17703,1.17587 2.2612,2.2879 3.13643,3.76905 1.1364,1.92573 1.13756,3.49395 1.13756,5.76791 0,0.802098 0.0963447,2.73363 -0.0255371,3.39296 -0.0986662,0.526994 -0.00464312,1.08649 -0.0951839,1.64831 -0.0348234,0.225191 -0.0139294,0.616374 -0.0127686,0.858977l-0.130007 2.4179c-0.0882192,0.751024 -0.0301803,1.79456 0.058039,2.54675l0.0754506 1.66804c0.0232156,0.212423 0.08938,0.532798 0.123043,0.748703 0.179921,1.1306 0.391183,1.57518 0.811385,2.60827 0.299481,0.732452 0.111435,0.579229 0.827636,0.915855 2.59318,1.21882 5.5079,1.85841 8.36109,1.96404l1.67268 0.0696468c0.609409,0 1.0981,0.0673252 1.67617,0.0673252 0.56646,-0.00116078 1.17471,-0.183403 1.27454,0.434131l0 0.0464312z"/>
      </g>
      <polygon id="_245020744" class="fil2" points="31.6382,110.965 30.7955,113.167 32.9951,112.546 "/>
     </g>
    </g>
    <g>
     <path id="_245020528" class="fil2" d="M97.9709 37.0103c-3.12366,-1.71679 -4.53168,-5.6588 -4.53168,-9.04943 0,-3.49859 1.49624,-8.02795 4.46204,-10.0837l0.451543 -0.31225 0.450382 0.31225c2.96695,2.05574 4.4632,6.5851 4.4632,10.0837 0,3.39064 -1.40919,7.33264 -4.53284,9.04943l-0.380736 0.20894 -0.381896 -0.20894zm8.50271 47.7208c-0.369128,-2.16369 0.105631,-4.4098 1.018,-6.3808 1.05515,-2.27977 2.72087,-4.27747 4.68258,-5.83524 0.675573,-0.537441 1.38829,-1.02497 2.13119,-1.4649 1.89671,-1.1248 4.03603,-1.96868 6.20204,-2.39121 1.91993,-0.374932 4.03835,-0.4469 5.92694,0.124203l0.525833 0.159027 0.0348234 0.547888c0.128846,1.96868 -0.420202,4.01514 -1.21882,5.80041 -0.901925,2.01511 -2.20664,3.90718 -3.73074,5.50209 -0.59548,0.623338 -1.23275,1.20837 -1.90716,1.74465 -1.96172,1.55777 -4.28444,2.72899 -6.74297,3.24206 -2.12771,0.443418 -4.42257,0.398147 -6.44697,-0.450382l-0.40163 -0.169474 -0.0731291 -0.428328zm0.286712 -14.6769c-0.484045,-2.02324 -0.176438,-4.17532 0.565299,-6.09757 0.854333,-2.21825 2.30299,-4.20666 4.05692,-5.80041 0.603605,-0.547888 1.24784,-1.05283 1.91993,-1.51366 3.0633,-2.09985 7.57641,-3.7586 11.313,-2.89266l0.535119 0.124203 0.0719683 0.544405c0.501457,3.80271 -1.58562,8.13474 -3.96986,10.981 -0.523511,0.624499 -1.08765,1.21766 -1.69242,1.76555 -1.7551,1.59259 -3.87468,2.84275 -6.1649,3.47886 -1.98261,0.552531 -4.15559,0.652358 -6.12195,-0.0255371l-0.412077 -0.141615 -0.100988 -0.422524zm-3.05285 -12.0477c-0.598962,-1.73653 -0.514225,-3.65297 -0.0278587,-5.40459 0.559496,-2.01511 1.65527,-3.88048 3.05633,-5.42548 0.480563,-0.531637 1.00175,-1.02729 1.54964,-1.48812 2.50612,-2.10333 6.31348,-3.93504 9.66349,-3.49627l0.544405 0.0719683 0.124203 0.533958c0.764953,3.29197 -0.687181,7.26067 -2.53398,9.95949 -0.403951,0.591997 -0.847369,1.1573 -1.32909,1.68777 -1.3999,1.545 -3.14919,2.81953 -5.0993,3.57288 -1.6959,0.65584 -3.59609,0.927463 -5.38369,0.501457l-0.422524 -0.102149 -0.141615 -0.410916zm-3.85147 -12.2137c-0.495653,-1.45446 -0.421363,-3.05749 -0.00928623,-4.52123 0.470116,-1.67268 1.38713,-3.22 2.55604,-4.50034 2.18459,-2.39237 6.02909,-4.54793 9.34079,-4.10103l0.544405 0.0719683 0.121882 0.535119c0.626821,2.74408 -0.58155,6.03373 -2.13003,8.27752 -0.337787,0.489849 -0.706915,0.957643 -1.10738,1.39758 -1.1689,1.27918 -2.62684,2.33201 -4.25077,2.95302 -1.42079,0.543245 -3.0099,0.762632 -4.50266,0.400469l-0.422524 -0.102149 -0.140454 -0.410916zm-11.4406 39.5361c-2.02556,0.84853 -4.32042,0.8938 -6.44697,0.450382 -2.45969,-0.513064 -4.78241,-1.68429 -6.74297,-3.24206 -0.675573,-0.53628 -1.31168,-1.12131 -1.90832,-1.74465 -1.5241,-1.59491 -2.82882,-3.48698 -3.73074,-5.50209 -0.798616,-1.78528 -1.34766,-3.83173 -1.21882,-5.80041l0.0348234 -0.547888 0.525833 -0.159027c1.88975,-0.571103 4.00701,-0.499135 5.92694,-0.124203 2.16717,0.422524 4.30533,1.26641 6.20204,2.39121 0.742899,0.439935 1.45678,0.927463 2.13119,1.4649 1.96172,1.55777 3.62743,3.55547 4.68258,5.83524 0.913533,1.971 1.38713,4.21711 1.018,6.3808l-0.0731291 0.428328 -0.400469 0.169474zm-0.325018 -14.7106c-1.96752,0.677895 -4.1405,0.578068 -6.12311,0.0255371 -2.29022,-0.636107 -4.4098,-1.88627 -6.1649,-3.47886 -0.603605,-0.547888 -1.1689,-1.14105 -1.69242,-1.76555 -2.38424,-2.84623 -4.47132,-7.17826 -3.96986,-10.981l0.0719683 -0.544405 0.535119 -0.124203c3.73655,-0.865941 8.24966,0.792812 11.313,2.89266 0.672091,0.460829 1.31632,0.965768 1.91993,1.51366 1.7551,1.59375 3.20259,3.58216 4.05808,5.80041 0.740577,1.92225 1.04818,4.07433 0.564139,6.09757l-0.100988 0.422524 -0.410916 0.141615zm3.00061 -12.0988c-1.78644,0.426006 -3.68663,0.154384 -5.38253,-0.501457 -1.95127,-0.753346 -3.6994,-2.02788 -5.10046,-3.57288 -0.480563,-0.530476 -0.92398,-1.09578 -1.32909,-1.68777 -1.8468,-2.69881 -3.29777,-6.66752 -2.53282,-9.95949l0.124203 -0.533958 0.544405 -0.0719683c3.34885,-0.438775 7.1562,1.39294 9.66233,3.49627 0.549049,0.460829 1.06908,0.956482 1.54964,1.48812 1.40106,1.545 2.498,3.41037 3.05749,5.42548 0.486366,1.75162 0.571103,3.66806 -0.0290195,5.40459l-0.141615 0.410916 -0.422524 0.102149zm3.85263 -12.2137c-1.49276,0.362163 -3.08187,0.142776 -4.50266,-0.400469 -1.62393,-0.621017 -3.08187,-1.67384 -4.25077,-2.95302 -0.400469,-0.439935 -0.769597,-0.907729 -1.10738,-1.39758 -1.54732,-2.24379 -2.75685,-5.53343 -2.13003,-8.27752l0.123043 -0.535119 0.543245 -0.0719683c3.3117,-0.4469 7.1562,1.70867 9.34079,4.10103 1.1689,1.28034 2.08592,2.82766 2.55604,4.50034 0.412077,1.46374 0.486366,3.06678 -0.00928623,4.52123l-0.140454 0.410916 -0.422524 0.102149z"/>
    </g>
    <g>
     <path id="_245020264" class="fil6" d="M98.3528 36.315l0 0 0 0 0 0c2.41558,-1.32561 4.12193,-4.56651 4.12193,-8.35413 0,-3.78762 -1.70635,-7.75865 -4.12193,-9.43249l0 0 0 0 0 0 0 0c-2.41558,1.67384 -4.12193,5.64487 -4.12193,9.43249 0,3.78762 1.70635,7.02852 4.12193,8.35413l0 0z"/>
     <path id="_245020096" class="fil6" d="M107.255 84.5976l0 0.00116078 0 0 0 0c3.45796,1.44981 8.35529,0.524672 12.3902,-2.6814 4.03487,-3.20607 6.8219,-8.38663 6.56072,-12.3762l0 0 0 0 0 0 0 0c-3.82825,-1.15614 -9.5033,0.386539 -13.5393,3.59377 -4.03487,3.20607 -6.04302,7.76677 -5.41155,11.4627l0 0z"/>
     <path id="_245019928" class="fil6" d="M107.53 69.8696l0.00116078 0 0 0.00116078 0 -0.00116078c3.3442,1.15149 7.89678,-0.0232156 11.4975,-3.29081 3.59958,-3.26875 5.9014,-8.31698 5.40923,-12.057l0 0 0 0 -0.00116078 -0.00116078 0 0c-3.67503,-0.850851 -8.92175,0.95416 -12.5213,4.22291 -3.60074,3.26759 -5.20842,7.68552 -4.38426,11.1261l-0.00116078 0z"/>
     <path id="_245019760" class="fil6" d="M104.456 57.7488l0 0 0 0 0 0c3.0041,0.716201 6.8602,-0.689503 9.71224,-3.83521 2.85087,-3.14571 4.42257,-7.72731 3.67735,-10.9357l0 0 0 0 0 0 0 0c-3.26527,-0.428328 -7.67159,1.58446 -10.5236,4.73018 -2.85087,3.14571 -3.87352,7.12138 -2.86596,10.0407l0 0z"/>
     <path id="_245019592" class="fil6" d="M100.606 45.5362l0 0 0 0 0 0c2.46317,0.597801 5.6321,-0.545566 7.98152,-3.11785 2.34942,-2.57345 3.65297,-6.32973 3.05053,-8.9647l0 0 0 0 0 0 0 0c-2.67908,-0.361002 -6.30071,1.27802 -8.65013,3.85147 -2.34942,2.57229 -3.20027,5.83175 -2.38192,8.23109l0 0z"/>
     <path id="_245019424" class="fil6" d="M88.1089 84.5976l0 0.00116078 0 0 -0.00116078 0c-3.4568,1.44981 -8.35413,0.524672 -12.3902,-2.6814 -4.03487,-3.20607 -6.82074,-8.38663 -6.55956,-12.3762l-0.00116078 0 0.00116078 0 0 0 0 0c3.82709,-1.15614 9.5033,0.386539 13.5382,3.59377 4.03487,3.20607 6.04302,7.76677 5.41271,11.4627l0 0z"/>
     <path id="_245019256" class="fil6" d="M87.8327 69.8696l0 0 0 0.00116078 -0.00116078 -0.00116078c-3.3442,1.15149 -7.89678,-0.0232156 -11.4975,-3.29081 -3.59958,-3.26875 -5.9014,-8.31698 -5.40807,-12.057l0 0 0 0 0 -0.00116078 0 0c3.67503,-0.850851 8.92175,0.95416 12.5225,4.22291 3.59958,3.26759 5.20726,7.68552 4.38426,11.1261l0 0z"/>
     <path id="_245019088" class="fil6" d="M90.9064 57.7488l0 0 0 0 0 0c-3.0041,0.716201 -6.8602,-0.689503 -9.71108,-3.83521 -2.85203,-3.14571 -4.42373,-7.72731 -3.67851,-10.9357l0 0 0 0 0 0 0 0c3.26643,-0.428328 7.67275,1.58446 10.5236,4.73018 2.85087,3.14571 3.87352,7.12138 2.86596,10.0407l0 0z"/>
     <path id="_245018632" class="fil6" d="M94.7579 45.5362l-0.00116078 0 0 0 0 0c-2.46317,0.597801 -5.6321,-0.545566 -7.98152,-3.11785 -2.34942,-2.57345 -3.65297,-6.32973 -3.05053,-8.9647l0 0 0 0 0 0 0 0c2.67908,-0.361002 6.30071,1.27802 8.65013,3.85147 2.34942,2.57229 3.20027,5.83175 2.38308,8.23109l0 0z"/>
    </g>
    <polyline id="_245018560" class="fil7" points="154.355,115.719 154.177,115.698 146.493,128.187 "/>
    <polyline id="_245018536" class="fil7" points="41.4363,115.719 41.6151,115.698 49.2983,128.187 "/>
    <g>
     <path id="_245018320" class="fil2" d="M54.1666 137.667c-2.75917,-2.25191 -5.34539,-4.71509 -7.72963,-7.36166l-4.41676 2.71854 -10.6966 -17.3827 11.4557 -1.3407 0.257693 0.458508c2.924,5.191 6.57581,9.95368 10.8243,14.129 11.7366,11.5323 27.3538,17.9886 43.8206,17.9886 16.4657,0 32.0828,-6.45509 43.8183,-17.9874 4.24961,-4.17532 7.90142,-8.93916 10.8254,-14.1302l0.258854 -0.458508 11.4546 1.3407 -10.6954 17.3827 -4.41909 -2.71854c-2.38424,2.64658 -4.9693,5.10859 -7.72847,7.3605l2.87757 4.49918 -19.2341 12.3019 -3.49627 -5.46495c-4.03951,1.4858 -8.21367,2.5897 -12.4598,3.29545l0 5.76443 -22.4042 0 0 -5.76559c-4.24613,-0.705754 -8.41913,-1.80849 -12.4598,-3.29429l-3.49511 5.46495 -19.2341 -12.3019 2.87641 -4.49802z"/>
    </g>
    <path id="_245018152" class="fil8" d="M97.6819 147.67l0 0c-23.7461,-0.078933 -44.4311,-13.1667 -55.3343,-32.5216l-2.51773 0.294838 -7.18058 0.840404 9.62982 15.6519 4.30765 -2.65122c2.67908,3.03079 5.62049,5.82363 8.78942,8.3402l-0.160188 -0.127686 -2.8323 4.42837 17.9004 11.4488 3.41269 -5.33726 -0.0951839 -0.0359842c4.36105,1.65759 8.93452,2.88221 13.6693,3.62163l0 5.64835 10.411 0 0 0 10.4099 0 0 -5.64719c4.69999,-0.733612 9.24212,-1.94663 13.5742,-3.58565l3.41385 5.3361 17.8992 -11.4488 -2.8323 -4.42837c-0.507261,0.405112 -1.02032,0.803259 -1.53919,1.19444 3.69824,-2.78819 7.10745,-5.94319 10.1707,-9.4116l-0.00348234 0.00464312 4.30997 2.65122 9.62982 -15.6519 -7.18174 -0.840404 -2.51773 -0.294838c-10.9032,19.3548 -31.5883,32.4426 -55.3332,32.5216z"/>
    <path id="_245018032" class="fil5" d="M94.3586 130.064c-0.00928623,-0.737095 0.31341,-2.59434 0.340108,-3.41501l0.200815 -5.09582c0.0301803,-0.987823 -0.0220548,-9.85502 -0.110274,-10.4238 -0.0766114,-0.500296 0.020894,-0.986662 -0.0568782,-1.4858 -0.126525,-0.825314 -0.0917016,-1.85725 -0.225191,-2.859 -0.243764,-1.82126 -2.43299,-6.93333 -3.51484,-8.55262 -1.65179,-2.47478 -3.69476,-4.30417 -6.05811,-6.07668 -2.43996,-1.83287 -5.23976,-3.22116 -8.24734,-3.82129 -3.86539,-0.770757 -6.87646,-0.374932 -10.6467,0.604766 -2.59782,0.675573 -7.93741,1.6692 -10.3216,0.318053 -1.49508,-0.847369 -2.01511,-2.45969 -1.92341,-4.11496 0.0742899,-1.32329 0.481723,-3.97219 0.672091,-5.4278 -0.423684,0.383057 -2.22289,3.08187 -2.64193,3.7261 -1.72376,2.64658 -2.11842,4.53865 -1.3407,7.56364 0.260015,1.01104 0.582711,1.23275 1.42195,1.79689 1.7342,1.16542 2.08012,1.6634 4.16139,2.27397 1.1039,0.323857 1.86073,0.219387 2.96231,0.256532 0.904247,0.031341 0.10447,0.165991 1.44749,-0.0197332 2.60479,-0.361002 4.26586,-0.68602 6.8544,-1.19096 0.877549,-0.171795 2.11726,-0.190368 3.02383,-0.192689 1.47883,-0.00464312 6.67216,1.22114 7.95018,1.70402 3.25947,1.22927 5.10279,3.09115 6.75341,6.0523 2.09637,3.76325 3.12714,8.65361 3.13178,12.9589 0.00116078,1.98725 0.0116078,2.76846 -0.130007,4.69883l-0.279748 2.9449c-0.0673252,0.560656 0.124203,0.53628 0.495653,0.985502 0.630303,0.762632 2.51773,2.72551 3.03544,3.40108 0.212423,0.276265 2.83811,3.23161 3.04588,3.39064z"/>
    <path id="_245017912" class="fil5" d="M107.712 104.409c0.14858,0.213583 0.162509,0.218226 0.437614,0.135811l0.00232156 -0.354038c-0.181082,0.0975055 -0.225191,0.0464312 -0.439935,0.218226z"/>
    <path id="_245017792" class="fil5" d="M45.8972 119.38c0.192689,0.195011 0.0951839,0.162509 0.379575,0.146258 -0.0266979,-0.19385 0.00348234,-0.260015 -0.146258,-0.4469 -0.149741,0.348234 0.106792,0.124203 -0.233317,0.300642z"/>
    <path id="_245017672" class="fil5" d="M101.004 129.621c0.00928623,-0.737095 -0.31341,-2.59434 -0.340108,-3.41501l-0.199654 -5.09582c-0.0301803,-0.987823 0.0220548,-9.85502 0.109113,-10.425 0.0766114,-0.499135 -0.0197332,-0.985502 0.0568782,-1.48464 0.126525,-0.825314 0.0917016,-1.85725 0.225191,-2.859 0.243764,-1.82242 2.43299,-6.93333 3.51484,-8.55262 1.65179,-2.47478 3.69592,-4.30417 6.05811,-6.07784 2.44112,-1.83171 5.23976,-3.22 8.24734,-3.82012 3.86539,-0.770757 6.87646,-0.376092 10.6478,0.604766 2.59782,0.675573 7.93625,1.66804 10.3205,0.318053 1.49508,-0.847369 2.01511,-2.45969 1.92341,-4.11496 -0.0742899,-1.32329 -0.481723,-3.97219 -0.672091,-5.42896 0.423684,0.384218 2.22289,3.08303 2.64309,3.72726 1.7226,2.64658 2.11726,4.53865 1.33954,7.56364 -0.260015,1.01104 -0.582711,1.23275 -1.42079,1.79689 -1.7342,1.16542 -2.08128,1.6634 -4.16255,2.27397 -1.10274,0.323857 -1.86073,0.219387 -2.96231,0.256532 -0.904247,0.031341 -0.10447,0.165991 -1.44633,-0.0197332 -2.60595,-0.361002 -4.26702,-0.68602 -6.85556,-1.19096 -0.877549,-0.171795 -2.1161,-0.190368 -3.02267,-0.192689 -1.47999,-0.00464312 -6.67332,1.22114 -7.95134,1.70402 -3.25947,1.22927 -5.10279,3.08999 -6.75225,6.0523 -2.09753,3.76325 -3.1283,8.65361 -3.13178,12.9589 -0.00232156,1.98725 -0.0127686,2.76846 0.128846,4.69883l0.279748 2.9449c0.068486,0.559496 -0.124203,0.535119 -0.495653,0.985502 -0.629142,0.762632 -2.51773,2.72551 -3.03544,3.40108 -0.212423,0.276265 -2.83811,3.23161 -3.04588,3.39064z"/>
    <path id="_245017552" class="fil5" d="M87.6504 103.965c-0.14858,0.212423 -0.162509,0.218226 -0.437614,0.135811l-0.00232156 -0.354038c0.181082,0.0963447 0.226352,0.0464312 0.439935,0.218226z"/>
    <path id="_245017456" class="fil5" d="M149.465 118.937c-0.191529,0.195011 -0.0940231,0.162509 -0.378414,0.146258 0.0266979,-0.19385 -0.00464312,-0.260015 0.145097,-0.4469 0.149741,0.348234 -0.106792,0.124203 0.233317,0.300642z"/>
    <g>
     <path id="_245017384" class="fil2" d="M101.112 129.824c1.38597,1.45562 1.96984,3.65413 2.15441,5.60192 0.13465,1.41499 -1.77947,4.40167 -2.57809,5.50441 -0.747542,1.03193 -1.68777,2.23102 -2.68372,3.03196l-0.326179 0.262336 -0.322697 -0.264658c-0.994788,-0.811385 -1.93038,-1.99306 -2.6814,-3.02963 -0.798616,-1.10274 -2.71274,-4.08943 -2.57809,-5.50441 0.185725,-1.94779 0.768436,-4.1463 2.15557,-5.60192l0 -22.453 6.8602 0 0 22.453z"/>
    </g>
    <g>
     <path id="_245017120" class="fil9" d="M97.6819 129.988l3.03428 0 0 -0.00232156c1.25364,1.23739 2.08824,3.22232 2.15673,5.47772 0.132329,0.826475 -0.894961,3.01106 -2.50496,5.23511 -0.919337,1.26873 -1.85144,2.30763 -2.61059,2.95534l-0.0766114 0.0603605 -0.0742899 -0.0603605c-0.76031,-0.647715 -1.69242,-1.68661 -2.61059,-2.95534 -1.61116,-2.22405 -2.63845,-4.40864 -2.50496,-5.23511 0.068486,-2.25539 0.903086,-4.24033 2.15673,-5.47772l0 0.00232156 3.03428 0z"/>
     <rect id="_245017000" class="fil3" x="94.6473" y="107.767" width="6.06836" height="21.8585"/>
    </g>
    <circle id="_245016832" class="fil4" cx="97.6815" cy="135.638" r="1.48308"/>
    <path id="_245016664" class="fil10" d="M97.6819 133.815c0.502617,0 0.958804,0.204297 1.28846,0.533958 0.329661,0.330822 0.533958,0.785848 0.533958,1.28963 0,0.502617 -0.204297,0.957643 -0.533958,1.28846l0 0 -0.00116078 0.00116078c-0.329661,0.329661 -0.785848,0.533958 -1.2873,0.533958 -0.502617,0 -0.958804,-0.204297 -1.28846,-0.533958l-0.00116078 -0.00116078 0 0c-0.329661,-0.330822 -0.533958,-0.785848 -0.533958,-1.28846 0,-0.503778 0.204297,-0.958804 0.533958,-1.28963 0.329661,-0.329661 0.785848,-0.533958 1.28963,-0.533958zm1.00407 0.81951c-0.256532,-0.257693 -0.611731,-0.41672 -1.00407,-0.41672 -0.392343,0 -0.747542,0.159027 -1.00523,0.41672 -0.256532,0.256532 -0.415559,0.611731 -0.415559,1.00407 0,0.392343 0.157866,0.748703 0.414398,1.00407l0.00116078 0.00116078c0.256532,0.256532 0.611731,0.415559 1.00523,0.415559 0.392343,0 0.747542,-0.159027 1.00407,-0.415559l0.00116078 -0.00116078c0.256532,-0.255371 0.415559,-0.611731 0.415559,-1.00407 0,-0.392343 -0.159027,-0.747542 -0.41672,-1.00407z"/>
    <rect id="_245016640" class="fil2" x="97.4731" y="137.247" width="0.416837" height="6.65798" rx="0.161348" ry="0.161348"/>
   </g>
   <path id="_245018392" class="fil11" d="M506.75 164.112l-77.4112 0 0 -6.4667 77.4112 0 0 6.4667zm-237.369 -6.4667l-7.22701 2.85203c-2.78935,0.761471 -4.37498,1.14221 -4.75455,1.14221 -0.127686,0 -0.316893,0 -0.571103,0 -0.380736,0.126525 -0.633785,0.189207 -0.76031,0.189207 -0.127686,0 -0.254211,0.0638429 -0.380736,0.190368 -0.126525,0 -0.190368,0 -0.190368,0 0,0 -1.30007,0.159027 -3.89906,0.475919 -2.59898,0.316893 -4.72321,0.475919 -6.37152,0.475919l-13.8852 0c-2.28209,0 -6.71975,-0.318053 -13.313,-0.951839 -1.26873,-0.25305 -4.12077,-0.76031 -8.55959,-1.52178l0 -2.85203 59.9125 0zm21.6834 -122.297l-64.0971 0 0 -5.32565 64.0971 0 0 5.32565zm0 25.4861l-33.6649 0 0 -6.08597 33.6649 0 0 6.08597zm0 -12.743l-64.0971 0 0 -6.4667 64.0971 0 0 6.4667zm0 25.8668l-33.6649 0 0 -6.4667 33.6649 0 0 6.4667zm0 12.743l-33.6649 0 0 -6.27633 33.6649 0 0 6.27633zm0 13.1238l-33.6649 0 0 -6.65707 33.6649 0 0 6.65707zm0 12.743l-33.6649 0 0 -6.65707 33.6649 0 0 6.65707zm0 12.7442l-34.8071 0c0.380736,-1.26873 0.634946,-3.36046 0.761471,-6.27749l34.0457 0 0 6.27749zm-0.951839 6.4667c0,0.379575 -0.633785,2.59898 -1.90136,6.65591l-50.4034 0c1.01452,-0.25305 1.87118,-0.379575 2.56764,-0.379575 0.697628,0 2.06154,-0.316893 4.08943,-0.951839 3.55082,-1.01452 6.40402,-2.78935 8.55959,-5.32449l37.0881 0zm-5.32565 12.743c-2.53514,4.31113 -4.43766,6.4667 -5.70523,6.4667l-69.6131 0 0 -6.4667 75.3183 0zm-54.5868 -6.08713l-20.7315 0 0 -4.37382 3.23393 0 9.5091 3.23277c0.127686,0 0.475919,0.0638429 1.04702,0.190368 0.569943,0.126525 0.919337,0.190368 1.04586,0.190368 0.126525,0 0.950678,0.126525 2.47246,0.380736 1.52178,0.25305 2.66283,0.379575 3.42314,0.379575zm150.638 25.6776l-34.236 0 0 -6.4667 34.236 0 0 6.4667zm41.463 -128.752l-117.162 0 0 -5.33726 117.162 0 0 5.33726zm0 12.5411l-117.162 0 0 -6.27633 117.162 0 0 6.27633zm0 10.4609l-41.463 0 0 3.04356 -34.236 0 0 -3.04356 -41.463 0 0 -3.61351 117.162 0 0 3.61351zm-41.463 15.7866l-34.236 0 0 -6.65707 34.236 0 0 6.65707zm0 12.5527l-34.236 0 0 -6.27633 34.236 0 0 6.27633zm0 13.1238l-34.236 0 0 -6.65707 34.236 0 0 6.65707zm0 12.5527l-34.236 0 0 -6.4667 34.236 0 0 6.4667zm0 13.1238l-34.236 0 0 -6.4667 34.236 0 0 6.4667zm0 12.5538l-34.236 0 0 -6.27633 34.236 0 0 6.27633zm0 13.1238l-34.236 0 0 -6.65707 34.236 0 0 6.65707zm125.912 -115.819l-77.4112 0 0 -5.33726 77.4112 0 0 5.33726zm0 12.9218l-77.4112 0 0 -6.65707 77.4112 0 0 6.65707zm-21.6834 10.0802l0 2.66283 -34.0457 0 0 -2.66283 -21.6822 0 0 -2.28209 0 -1.33141 21.6764 0 34.0515 0 21.6834 0 0 1.33141 0 2.28209 -21.6834 0zm0 15.7866l-34.0457 0 0 -6.65707 34.0457 0 0 6.65707zm0 12.5527l-34.0457 0 0 -6.27633 34.0457 0 0 6.27633zm0 13.1238l-34.0457 0 0 -6.65707 34.0457 0 0 6.65707zm0 12.743l-34.0457 0 0 -6.65707 34.0457 0 0 6.65707zm0 12.7442l-34.0457 0 0 -6.27749 34.0457 0 0 6.27749zm0 13.1238l-34.0457 0 0 -6.65707 34.0457 0 0 6.65707zm21.6834 12.5527l-77.4112 0 0 -6.4667 77.4112 0 0 6.4667z"/>
   <g>
    <path id="_242105480" class="fil11" d="M522.019 101.739c1.02381,0.116078 2.02904,0.174117 2.99481,0.192689 0.965768,0.0394665 2.00931,0.0394665 3.14919,0.0394665 2.43531,0.0185725 4.73482,-0.290195 6.91824,-0.90889 2.20316,-0.617535 4.1347,-1.70054 5.85497,-3.20723 1.70054,-1.50669 3.05285,-3.59377 4.03835,-6.26008 0.985502,-2.64774 1.48812,-5.99078 1.50669,-10.0291l0 -60.9827 -12.7523 0 0 61.9102c-0.0197332,2.06735 -0.348234,3.67154 -0.985502,4.7917 -0.657001,1.14105 -1.52642,1.91296 -2.628,2.35754 -1.08301,0.426006 -2.31924,0.638429 -3.69128,0.618695 -0.695307,0 -1.43008,0 -2.20316,-0.0197332 -0.753346,0 -1.48696,-0.0383057 -2.202,-0.0963447l0 11.5939z"/>
    <path id="_2421054801" class="fil11" d="M554.597 20.5829l0 61.7941c0,4.34828 0.71504,8.01982 2.14512,11.0529 1.42892,3.03428 3.55431,5.35235 6.37616,6.95655 2.82069,1.58446 6.31812,2.37611 10.4923,2.39585 4.17416,-0.0197332 7.67159,-0.811385 10.4923,-2.39585 2.82069,-1.6042 4.94608,-3.92227 6.37616,-6.95655 1.43008,-3.03312 2.14512,-6.70466 2.14512,-11.0529l0 -61.7941 -12.057 0 0 62.6055c0,1.9327 -0.270462,3.45912 -0.811385,4.61874 -0.542084,1.15962 -1.29543,1.98958 -2.28093,2.51193 -0.985502,0.52119 -2.16369,0.773079 -3.516,0.753346 -1.35347,0.0197332 -2.53166,-0.232156 -3.51716,-0.753346 -0.985502,-0.522351 -1.73885,-1.35231 -2.27977,-2.51193 -0.540923,-1.15962 -0.812545,-2.68604 -0.812545,-4.61874l0 -62.6055 -12.7523 0z"/>
    <path id="_24210548012" class="fil11" d="M640.971 101.739c-0.618695,-1.48812 -1.00523,-3.01454 -1.17935,-4.57927 -0.154384,-1.56589 -0.230995,-3.32331 -0.212423,-5.27574l0 -12.5213c0.0197332,-2.82069 -0.250728,-5.37093 -0.773079,-7.61239 -0.540923,-2.2612 -1.42892,-4.1939 -2.66631,-5.79693 -1.23623,-1.6042 -2.91704,-2.86016 -5.02385,-3.74932l0 -0.230995c2.84043,-1.33374 4.92751,-3.34304 6.29955,-6.04882 1.37204,-2.70462 2.04761,-6.12543 2.04761,-10.2984l0 -6.37732c0.0197332,-4.173 -0.637268,-7.65186 -1.971,-10.4145 -1.314,-2.76382 -3.36162,-4.83116 -6.144,-6.2032 -2.80212,-1.37204 -6.39589,-2.04761 -10.7825,-2.04761l-19.2457 0 0 81.1559 12.7535 0 0 -33.0427 4.40516 0c1.9327,-0.0185725 3.51716,0.328501 4.73482,1.00523 1.23623,0.676734 2.14396,1.77831 2.74292,3.28501 0.58039,1.52642 0.870584,3.53573 0.870584,6.02909l0 12.7523c0,1.6425 0.0383057,2.99597 0.0766114,4.05808 0.058039,1.06327 0.135811,1.9327 0.251889,2.628 0.0963447,0.676734 0.212423,1.2757 0.366806,1.77831 0.13465,0.501457 0.290195,1.00407 0.463151,1.50669l12.9856 0zm-20.7536 -69.562c2.24146,-0.0197332 3.9037,0.657001 4.94724,1.98958 1.04354,1.35231 1.56473,3.47886 1.54616,6.35759l0 8.00009c0,2.14396 -0.309928,3.8445 -0.927463,5.10046 -0.618695,1.25596 -1.48812,2.16485 -2.628,2.70578 -1.13989,0.52119 -2.51193,0.791651 -4.09639,0.773079l-4.98555 0 0 -24.9266 6.144 0z"/>
    <path id="_242105480123" class="fil11" d="M647.347 20.5829l0 61.7941c0,4.34828 0.71504,8.01982 2.14512,11.0529 1.42892,3.03428 3.55431,5.35235 6.37616,6.95655 2.82069,1.58446 6.31812,2.37611 10.4923,2.39585 4.17416,-0.0197332 7.67159,-0.811385 10.4923,-2.39585 2.82069,-1.6042 4.94608,-3.92227 6.37616,-6.95655 1.43008,-3.03312 2.14512,-6.70466 2.14512,-11.0529l0 -61.7941 -12.057 0 0 62.6055c0,1.9327 -0.270462,3.45912 -0.811385,4.61874 -0.542084,1.15962 -1.29543,1.98958 -2.28093,2.51193 -0.985502,0.52119 -2.16369,0.773079 -3.516,0.753346 -1.35347,0.0197332 -2.53166,-0.232156 -3.51716,-0.753346 -0.985502,-0.522351 -1.73885,-1.35231 -2.27977,-2.51193 -0.540923,-1.15962 -0.812545,-2.68604 -0.812545,-4.61874l0 -62.6055 -12.7523 0z"/>
    <path id="_2421054801234" class="fil11" d="M692.447 40.0597c0,2.2995 0.212423,4.48293 0.695307,6.55144 0.464312,2.06735 1.23739,4.09639 2.31924,6.1057 1.08185,1.98958 2.51193,4.01862 4.32855,6.1057 1.79689,2.08708 4.03835,4.29024 6.68493,6.62805 2.76382,2.41558 4.94724,4.57927 6.5317,6.49224 1.60304,1.9327 2.72435,3.78762 3.40108,5.56478 0.65584,1.75858 0.984341,3.61351 0.965768,5.56478 0,1.9327 -0.270462,3.45912 -0.811385,4.61874 -0.540923,1.15962 -1.29543,1.99074 -2.28093,2.51193 -0.985502,0.52119 -2.16369,0.773079 -3.516,0.753346 -1.35347,0.0197332 -2.53166,-0.232156 -3.51716,-0.753346 -0.985502,-0.52119 -1.73885,-1.35231 -2.27977,-2.51193 -0.540923,-1.15962 -0.811385,-2.68604 -0.811385,-4.61874l0 -5.79577 -12.0582 0 0 4.98439c0,4.34828 0.71504,8.01982 2.14512,11.0529 1.43008,3.03428 3.55547,5.35235 6.37616,6.95655 2.82185,1.58446 6.31928,2.37611 10.4923,2.39585 4.17416,-0.0197332 7.67159,-0.811385 10.4923,-2.39585 2.82185,-1.6042 4.94724,-3.92227 6.37732,-6.95655 1.43008,-3.03312 2.14512,-6.70466 2.14512,-11.0529 0.0185725,-2.2995 -0.213583,-4.48293 -0.696468,-6.55028 -0.463151,-2.08708 -1.23623,-4.11612 -2.31808,-6.1057 -1.08301,-1.99074 -2.51193,-4.01978 -4.32855,-6.1057 -1.79689,-2.08708 -4.01978,-4.29024 -6.68609,-6.62805 -2.76265,-2.41558 -4.94608,-4.57927 -6.53054,-6.51197 -1.6042,-1.91296 -2.72551,-3.76789 -3.40108,-5.5462 -0.657001,-1.75742 -0.985502,-3.63208 -0.965768,-5.56478 0.0185725,-2.87873 0.559496,-4.92751 1.66108,-6.18347 1.10158,-1.23623 2.66631,-1.85493 4.71509,-1.81546 2.04761,-0.0394665 3.61351,0.579229 4.71509,1.81546 1.10042,1.25596 1.6425,3.30474 1.66108,6.18347l0 3.36278 12.0582 0 0 -2.55139c0,-4.34712 -0.71504,-8.0384 -2.10681,-11.0715 -1.41035,-3.03428 -3.516,-5.33378 -6.29955,-6.93682 -2.78239,-1.58446 -6.24035,-2.37728 -10.3762,-2.39585 -4.1347,0.0185725 -7.59382,0.811385 -10.3762,2.39585 -2.78239,1.60304 -4.88804,3.90254 -6.29955,6.93682 -1.39061,3.03312 -2.10565,6.72439 -2.10565,11.0715z"/>
    <path id="_24210548012345" class="fil11" d="M765.72 20.5829l-18.6665 0 -12.9845 81.1559 11.7088 0 2.20316 -14.7245 15.6519 0 2.20316 14.7245 12.8684 0 -12.9845 -81.1559zm-10.0872 14.3763l0.232156 0 6.02909 41.0417 -12.2903 0 6.02909 -41.0417z"/>
    <polygon id="_242105480123456" class="fil11" points="811.863,101.739 824.963,101.739 824.963,20.5829 813.602,20.5829 813.602,69.1604 813.37,69.1604 800.501,20.5829 784.501,20.5829 784.501,101.739 795.979,101.739 795.979,42.9581 796.211,42.9581 "/>
    <polygon id="_2421054801234567" class="fil11" points="848.381,32.1768 861.714,32.1768 861.714,101.739 874.467,101.739 874.467,32.1768 887.8,32.1768 887.8,20.5829 848.381,20.5829 "/>
    <polygon id="_24210548012345678" class="fil11" points="906.118,32.1768 928.146,32.1768 928.146,20.5829 893.365,20.5829 893.365,101.739 928.146,101.739 928.146,90.145 906.118,90.145 906.118,66.378 923.625,66.378 923.625,54.7841 906.118,54.7841 "/>
    <polygon id="_242105480123456789" class="fil11" points="965.13,101.739 978.23,101.739 960.493,56.7551 978.23,20.5829 965.477,20.5829 949.015,55.7116 948.783,55.7116 948.783,20.5829 936.029,20.5829 936.029,101.739 948.783,101.739 948.783,76.8122 952.725,69.3925 "/>
    <polygon id="_24210548012345678910" class="fil11" points="1011.27,101.739 1024.37,101.739 1024.37,20.5829 1013.01,20.5829 1013.01,69.1604 1012.78,69.1604 999.911,20.5829 983.911,20.5829 983.911,101.739 995.389,101.739 995.389,42.9581 995.621,42.9581 "/>
    <path id="_2421054801234567891011" class="fil11" d="M1045.24 39.2483c0.0197332,-2.87873 0.618695,-4.92751 1.77715,-6.18347 1.17935,-1.23623 2.78355,-1.85493 4.83116,-1.81546 2.04878,-0.0394665 3.65181,0.579229 4.83116,1.81546 1.15846,1.25596 1.75742,3.30474 1.77715,6.18347l0 43.8241c-0.0197332,2.87989 -0.618695,4.92751 -1.77715,6.18347 -1.17935,1.23739 -2.78239,1.85493 -4.83116,1.81662 -2.04761,0.0383057 -3.65181,-0.579229 -4.83116,-1.81662 -1.15846,-1.25596 -1.75742,-3.30358 -1.77715,-6.18347l0 -43.8241zm-12.7535 43.0127c0,4.34828 0.753346,8.01982 2.24146,11.0529 1.48812,3.03428 3.65181,5.35235 6.5317,6.95655 2.87873,1.58446 6.41447,2.37611 10.5886,2.39585 4.17416,-0.0197332 7.7099,-0.811385 10.5886,-2.39585 2.87989,-1.6042 5.04359,-3.92227 6.5317,-6.95655 1.48812,-3.03312 2.24146,-6.70466 2.24146,-11.0529l0 -42.2013c0,-4.34712 -0.753346,-8.0384 -2.24146,-11.0715 -1.48812,-3.03428 -3.65181,-5.33378 -6.5317,-6.93682 -2.87873,-1.58446 -6.41447,-2.37728 -10.5886,-2.39585 -4.17416,0.0185725 -7.7099,0.811385 -10.5886,2.39585 -2.87989,1.60304 -5.04359,3.90254 -6.5317,6.93682 -1.48812,3.03312 -2.24146,6.72439 -2.24146,11.0715l0 42.2013z"/>
    <polygon id="_242105480123456789101112" class="fil11" points="1079.44,101.739 1113.18,101.739 1113.18,90.145 1092.2,90.145 1092.2,20.5829 1079.44,20.5829 "/>
    <path id="_24210548012345678910111213" class="fil11" d="M1130.46 39.2483c0.0197332,-2.87873 0.618695,-4.92751 1.77715,-6.18347 1.17935,-1.23623 2.78355,-1.85493 4.83116,-1.81546 2.04878,-0.0394665 3.65181,0.579229 4.83116,1.81546 1.15846,1.25596 1.75742,3.30474 1.77715,6.18347l0 43.8241c-0.0197332,2.87989 -0.618695,4.92751 -1.77715,6.18347 -1.17935,1.23739 -2.78239,1.85493 -4.83116,1.81662 -2.04761,0.0383057 -3.65181,-0.579229 -4.83116,-1.81662 -1.15846,-1.25596 -1.75742,-3.30358 -1.77715,-6.18347l0 -43.8241zm-12.7535 43.0127c0,4.34828 0.753346,8.01982 2.24146,11.0529 1.48812,3.03428 3.65181,5.35235 6.5317,6.95655 2.87873,1.58446 6.41447,2.37611 10.5886,2.39585 4.17416,-0.0197332 7.7099,-0.811385 10.5886,-2.39585 2.87989,-1.6042 5.04359,-3.92227 6.5317,-6.95655 1.48812,-3.03312 2.24146,-6.70466 2.24146,-11.0529l0 -42.2013c0,-4.34712 -0.753346,-8.0384 -2.24146,-11.0715 -1.48812,-3.03428 -3.65181,-5.33378 -6.5317,-6.93682 -2.87873,-1.58446 -6.41447,-2.37728 -10.5886,-2.39585 -4.17416,0.0185725 -7.7099,0.811385 -10.5886,2.39585 -2.87989,1.60304 -5.04359,3.90254 -6.5317,6.93682 -1.48812,3.03312 -2.24146,6.72439 -2.24146,11.0715l0 42.2013z"/>
    <path id="_2421054801234567891011121314" class="fil11" d="M1183.79 68.1168l5.79693 0 0 14.9555c0,1.91296 -0.270462,3.45912 -0.811385,4.61874 -0.540923,1.15962 -1.29427,1.99074 -2.27977,2.51193 -0.985502,0.52119 -2.16485,0.773079 -3.51716,0.753346 -1.35231,0.0197332 -2.53166,-0.232156 -3.51716,-0.753346 -0.985502,-0.52119 -1.73885,-1.35231 -2.27977,-2.51193 -0.540923,-1.15962 -0.811385,-2.70578 -0.811385,-4.61874l0 -43.8241c0.0197332,-2.87873 0.618695,-4.92751 1.77715,-6.18347 1.17935,-1.23623 2.78355,-1.85493 4.83116,-1.81546 2.04878,-0.0394665 3.65181,0.579229 4.83116,1.81546 1.15846,1.25596 1.75742,3.30474 1.77715,6.18347l0 8.6954 12.0582 0 0 -7.88401c0,-4.34712 -0.71504,-8.0384 -2.14512,-11.0715 -1.43008,-3.03428 -3.55547,-5.33378 -6.37732,-6.93682 -2.82069,-1.58446 -6.31812,-2.37728 -10.4923,-2.39585 -4.173,0.0185725 -7.67043,0.811385 -10.4923,2.39585 -2.82069,1.60304 -4.94608,3.90254 -6.37616,6.93682 -1.43008,3.03312 -2.14512,6.72439 -2.14512,11.0715l0 42.2013c0,4.34828 0.71504,8.01982 2.14512,11.0529 1.43008,3.03428 3.55547,5.35235 6.37616,6.95655 2.82185,1.58446 6.31928,2.37611 10.4923,2.39585 4.17416,-0.0197332 7.67159,-0.811385 10.4923,-2.39585 2.82185,-1.6042 4.94724,-3.92227 6.37732,-6.95655 1.43008,-3.03312 2.14512,-6.70466 2.14512,-11.0529l0 -25.738 -17.8551 0 0 11.5939z"/>
    <polygon id="_242105480123456789101112131415" class="fil11" points="1209.87,101.739 1222.63,101.739 1222.63,20.5829 1209.87,20.5829 "/>
    <polygon id="_24210548012345678910111213141516" class="fil11" points="1249.87,101.739 1262.62,101.739 1262.62,20.5829 1249.87,20.5829 "/>
    <polygon id="_2421054801234567891011121314151617" class="fil11" points="1299.15,101.739 1312.25,101.739 1312.25,20.5829 1300.88,20.5829 1300.88,69.1604 1300.65,69.1604 1287.78,20.5829 1271.78,20.5829 1271.78,101.739 1283.26,101.739 1283.26,42.9581 1283.49,42.9581 "/>
    <polygon id="_242105480123456789101112131415161718" class="fil11" points="1334.16,32.1768 1355.14,32.1768 1355.14,20.5829 1321.4,20.5829 1321.4,101.739 1334.16,101.739 1334.16,68.2329 1350.62,68.2329 1350.62,56.6391 1334.16,56.6391 "/>
    <path id="_24210548012345678910111213141516171819" class="fil11" d="M1373 39.2483c0.0197332,-2.87873 0.618695,-4.92751 1.77715,-6.18347 1.17935,-1.23623 2.78355,-1.85493 4.83116,-1.81546 2.04878,-0.0394665 3.65181,0.579229 4.83116,1.81546 1.15846,1.25596 1.75742,3.30474 1.77715,6.18347l0 43.8241c-0.0197332,2.87989 -0.618695,4.92751 -1.77715,6.18347 -1.17935,1.23739 -2.78239,1.85493 -4.83116,1.81662 -2.04761,0.0383057 -3.65181,-0.579229 -4.83116,-1.81662 -1.15846,-1.25596 -1.75742,-3.30358 -1.77715,-6.18347l0 -43.8241zm-12.7535 43.0127c0,4.34828 0.753346,8.01982 2.24146,11.0529 1.48812,3.03428 3.65181,5.35235 6.5317,6.95655 2.87873,1.58446 6.41447,2.37611 10.5886,2.39585 4.17416,-0.0197332 7.7099,-0.811385 10.5886,-2.39585 2.87989,-1.6042 5.04359,-3.92227 6.5317,-6.95655 1.48812,-3.03312 2.24146,-6.70466 2.24146,-11.0529l0 -42.2013c0,-4.34712 -0.753346,-8.0384 -2.24146,-11.0715 -1.48812,-3.03428 -3.65181,-5.33378 -6.5317,-6.93682 -2.87873,-1.58446 -6.41447,-2.37728 -10.5886,-2.39585 -4.17416,0.0185725 -7.7099,0.811385 -10.5886,2.39585 -2.87989,1.60304 -5.04359,3.90254 -6.5317,6.93682 -1.48812,3.03312 -2.24146,6.72439 -2.24146,11.0715l0 42.2013z"/>
    <path id="_2421054801234567891011121314151617181920" class="fil11" d="M1446.85 101.739c-0.618695,-1.48812 -1.00523,-3.01454 -1.17935,-4.57927 -0.154384,-1.56589 -0.230995,-3.32331 -0.212423,-5.27574l0 -12.5213c0.0197332,-2.82069 -0.250728,-5.37093 -0.773079,-7.61239 -0.540923,-2.2612 -1.42892,-4.1939 -2.66631,-5.79693 -1.23623,-1.6042 -2.91704,-2.86016 -5.02385,-3.74932l0 -0.230995c2.84043,-1.33374 4.92751,-3.34304 6.29955,-6.04882 1.37204,-2.70462 2.04761,-6.12543 2.04761,-10.2984l0 -6.37732c0.0197332,-4.173 -0.637268,-7.65186 -1.971,-10.4145 -1.314,-2.76382 -3.36162,-4.83116 -6.144,-6.2032 -2.80212,-1.37204 -6.39589,-2.04761 -10.7825,-2.04761l-19.2457 0 0 81.1559 12.7535 0 0 -33.0427 4.40516 0c1.9327,-0.0185725 3.51716,0.328501 4.73482,1.00523 1.23623,0.676734 2.14396,1.77831 2.74292,3.28501 0.58039,1.52642 0.870584,3.53573 0.870584,6.02909l0 12.7523c0,1.6425 0.0383057,2.99597 0.0766114,4.05808 0.058039,1.06327 0.135811,1.9327 0.251889,2.628 0.0963447,0.676734 0.212423,1.2757 0.366806,1.77831 0.13465,0.501457 0.290195,1.00407 0.463151,1.50669l12.9856 0zm-20.7536 -69.562c2.24146,-0.0197332 3.9037,0.657001 4.94724,1.98958 1.04354,1.35231 1.56473,3.47886 1.54616,6.35759l0 8.00009c0,2.14396 -0.309928,3.8445 -0.927463,5.10046 -0.618695,1.25596 -1.48812,2.16485 -2.628,2.70578 -1.13989,0.52119 -2.51193,0.791651 -4.09639,0.773079l-4.98555 0 0 -24.9266 6.144 0z"/>
    <polygon id="_242105480123456789101112131415161718192021" class="fil11" points="1471.43,20.5829 1453.69,20.5829 1453.69,101.739 1464.82,101.739 1464.82,44.3499 1465.05,44.3499 1474.32,101.739 1486.38,101.739 1494.96,43.5385 1495.19,43.5385 1495.19,101.739 1507.25,101.739 1507.25,20.5829 1489.51,20.5829 1480.93,78.204 1480.7,78.204 "/>
    <path id="_24210548012345678910111213141516171819202122" class="fil11" d="M1544.81 20.5829l-18.6665 0 -12.9845 81.1559 11.7088 0 2.20316 -14.7245 15.6519 0 2.20316 14.7245 12.8684 0 -12.9845 -81.1559zm-10.0872 14.3763l0.232156 0 6.02909 41.0417 -12.2903 0 6.02909 -41.0417z"/>
    <path id="_2421054801234567891011121314151617181920212223" class="fil11" d="M1562.09 40.0597c0,2.2995 0.212423,4.48293 0.695307,6.55144 0.464312,2.06735 1.23739,4.09639 2.31924,6.1057 1.08185,1.98958 2.51193,4.01862 4.32855,6.1057 1.79689,2.08708 4.03835,4.29024 6.68493,6.62805 2.76382,2.41558 4.94724,4.57927 6.5317,6.49224 1.60304,1.9327 2.72435,3.78762 3.40108,5.56478 0.65584,1.75858 0.984341,3.61351 0.965768,5.56478 0,1.9327 -0.270462,3.45912 -0.811385,4.61874 -0.540923,1.15962 -1.29543,1.99074 -2.28093,2.51193 -0.985502,0.52119 -2.16369,0.773079 -3.516,0.753346 -1.35347,0.0197332 -2.53166,-0.232156 -3.51716,-0.753346 -0.985502,-0.52119 -1.73885,-1.35231 -2.27977,-2.51193 -0.540923,-1.15962 -0.811385,-2.68604 -0.811385,-4.61874l0 -5.79577 -12.0582 0 0 4.98439c0,4.34828 0.71504,8.01982 2.14512,11.0529 1.43008,3.03428 3.55547,5.35235 6.37616,6.95655 2.82185,1.58446 6.31928,2.37611 10.4923,2.39585 4.17416,-0.0197332 7.67159,-0.811385 10.4923,-2.39585 2.82185,-1.6042 4.94724,-3.92227 6.37732,-6.95655 1.43008,-3.03312 2.14512,-6.70466 2.14512,-11.0529 0.0185725,-2.2995 -0.213583,-4.48293 -0.696468,-6.55028 -0.463151,-2.08708 -1.23623,-4.11612 -2.31808,-6.1057 -1.08301,-1.99074 -2.51193,-4.01978 -4.32855,-6.1057 -1.79689,-2.08708 -4.01978,-4.29024 -6.68609,-6.62805 -2.76265,-2.41558 -4.94608,-4.57927 -6.53054,-6.51197 -1.6042,-1.91296 -2.72551,-3.76789 -3.40108,-5.5462 -0.657001,-1.75742 -0.985502,-3.63208 -0.965768,-5.56478 0.0185725,-2.87873 0.559496,-4.92751 1.66108,-6.18347 1.10158,-1.23623 2.66631,-1.85493 4.71509,-1.81546 2.04761,-0.0394665 3.61351,0.579229 4.71509,1.81546 1.10042,1.25596 1.6425,3.30474 1.66108,6.18347l0 3.36278 12.0582 0 0 -2.55139c0,-4.34712 -0.71504,-8.0384 -2.10681,-11.0715 -1.41035,-3.03428 -3.516,-5.33378 -6.29955,-6.93682 -2.78239,-1.58446 -6.24035,-2.37728 -10.3762,-2.39585 -4.1347,0.0185725 -7.59382,0.811385 -10.3762,2.39585 -2.78239,1.60304 -4.88804,3.90254 -6.29955,6.93682 -1.39061,3.03312 -2.10565,6.72439 -2.10565,11.0715z"/>
    <polygon id="_242105480123456789101112131415161718192021222324" class="fil11" points="1607.07,101.739 1619.83,101.739 1619.83,20.5829 1607.07,20.5829 "/>
    <path id="_244098976" class="fil11" d="M539.594 111.235l-15.0251 0 0 64.9247 10.2021 0 0 -24.3926 4.82304 0c5.10162,-0.0162509 8.90434,-1.39177 11.4395,-4.12773 2.52005,-2.73596 3.77137,-6.7093 3.77137,-11.9189l0 -8.44003c0,-5.20958 -1.25132,-9.18176 -3.77137,-11.9177 -2.53514,-2.73712 -6.33785,-4.11264 -11.4395,-4.12773zm0 9.27463c1.08301,-0.0150901 1.99422,0.170635 2.73712,0.557174 0.756828,0.370289 1.314,1.02032 1.69938,1.91645 0.386539,0.896122 0.572264,2.11726 0.572264,3.64833l0 9.73894c0,1.52991 -0.185725,2.75105 -0.572264,3.64717 -0.385379,0.897282 -0.942553,1.53107 -1.69938,1.91761 -0.742899,0.386539 -1.65411,0.572264 -2.73712,0.556013l-4.82304 0 0 -21.9817 4.82304 0z"/>
    <path id="_2440989761" class="fil11" d="M568.903 126.167c0.0162509,-2.30299 0.494492,-3.94201 1.42312,-4.94608 0.942553,-0.990145 2.22521,-1.48464 3.86423,-1.4533 1.63786,-0.031341 2.92168,0.463151 3.86423,1.4533 0.927463,1.00407 1.40686,2.64309 1.42195,4.94608l0 35.0602c-0.0150901,2.30299 -0.494492,3.94085 -1.42195,4.94608 -0.942553,0.988984 -2.22637,1.48464 -3.86423,1.4533 -1.63902,0.031341 -2.92168,-0.464312 -3.86423,-1.4533 -0.928623,-1.00523 -1.40686,-2.64309 -1.42312,-4.94608l0 -35.0602zm-10.2021 34.4101c0,3.47886 0.602444,6.41563 1.7934,8.84282 1.1898,2.42719 2.92168,4.28211 5.22467,5.56478 2.30299,1.26757 5.1318,1.90136 8.47137,1.91645 3.3384,-0.0150901 6.16722,-0.648876 8.47137,-1.91645 2.30299,-1.28266 4.03371,-3.13759 5.22467,-5.56478 1.1898,-2.42719 1.7934,-5.36396 1.7934,-8.84282l0 -33.7601c0,-3.47886 -0.603605,-6.43072 -1.7934,-8.85791 -1.19096,-2.42719 -2.92168,-4.26702 -5.22467,-5.54969 -2.30415,-1.26757 -5.13297,-1.90136 -8.47137,-1.91645 -3.33956,0.0150901 -6.16838,0.648876 -8.47137,1.91645 -2.30299,1.28266 -4.03487,3.1225 -5.22467,5.54969 -1.19096,2.42719 -1.7934,5.37905 -1.7934,8.85791l0 33.7601z"/>
    <polygon id="_24409897612" class="fil11" points="596.263,176.16 623.254,176.16 623.254,166.885 606.465,166.885 606.465,111.235 596.263,111.235 "/>
    <polygon id="_244098976123" class="fil11" points="627.705,176.16 637.907,176.16 637.907,111.235 627.705,111.235 "/>
    <polygon id="_2440989761234" class="fil11" points="642.36,120.51 653.027,120.51 653.027,176.16 663.229,176.16 663.229,120.51 673.895,120.51 673.895,111.235 642.36,111.235 "/>
    <polygon id="_24409897612345" class="fil11" points="688.548,120.51 706.17,120.51 706.17,111.235 678.345,111.235 678.345,176.16 706.17,176.16 706.17,166.885 688.548,166.885 688.548,147.872 702.553,147.872 702.553,138.596 688.548,138.596 "/>
    <polygon id="_244098976123456" class="fil11" points="735.758,176.16 746.238,176.16 732.048,140.173 746.238,111.235 736.035,111.235 722.865,139.339 722.679,139.339 722.679,111.235 712.477,111.235 712.477,176.16 722.679,176.16 722.679,156.219 725.833,150.283 "/>
    <polygon id="_2440989761234567" class="fil11" points="772.672,176.16 783.152,176.16 783.152,111.235 774.063,111.235 774.063,150.097 773.878,150.097 763.583,111.235 750.783,111.235 750.783,176.16 759.966,176.16 759.966,129.136 760.15,129.136 "/>
    <polygon id="_24409897612345678" class="fil11" points="790.479,176.16 800.681,176.16 800.681,111.235 790.479,111.235 "/>
    <polygon id="_244098976123456789" class="fil11" points="831.383,176.16 841.863,176.16 827.673,140.173 841.863,111.235 831.66,111.235 818.49,139.339 818.304,139.339 818.304,111.235 808.102,111.235 808.102,176.16 818.304,176.16 818.304,156.219 821.458,150.283 "/>
    <polygon id="_24409897612345678910" class="fil11" points="882.673,176.16 893.153,176.16 893.153,111.235 884.065,111.235 884.065,150.097 883.879,150.097 873.584,111.235 860.784,111.235 860.784,176.16 869.967,176.16 869.967,129.136 870.151,129.136 "/>
    <polygon id="_2440989761234567891011" class="fil11" points="910.682,120.51 928.305,120.51 928.305,111.235 900.48,111.235 900.48,176.16 928.305,176.16 928.305,166.885 910.682,166.885 910.682,147.872 924.688,147.872 924.688,138.596 910.682,138.596 "/>
    <path id="_244098976123456789101112" class="fil11" d="M949.916 149.262l4.63731 0 0 11.9653c0,1.52991 -0.215905,2.76614 -0.648876,3.6936 -0.432971,0.927463 -1.03542,1.59259 -1.82358,2.01047 -0.78933,0.41672 -1.73188,0.617535 -2.81373,0.602444 -1.08185,0.0150901 -2.02556,-0.185725 -2.81373,-0.602444 -0.788169,-0.417881 -1.39061,-1.08301 -1.82358,-2.01047 -0.432971,-0.927463 -0.650036,-2.16369 -0.650036,-3.6936l0 -35.0602c0.0162509,-2.30299 0.494492,-3.94201 1.42312,-4.94608 0.942553,-0.990145 2.22521,-1.48464 3.86423,-1.4533 1.63786,-0.031341 2.92168,0.463151 3.86423,1.4533 0.927463,1.00407 1.40686,2.64309 1.42195,4.94608l0 6.95655 9.64608 0 0 -6.30651c0,-3.47886 -0.572264,-6.43072 -1.71563,-8.85791 -1.14337,-2.42719 -2.84391,-4.26702 -5.10162,-5.54969 -2.25655,-1.26757 -5.05403,-1.90136 -8.39359,-1.91645 -3.3384,0.0150901 -6.13704,0.648876 -8.39359,1.91645 -2.25655,1.28266 -3.9571,3.1225 -5.10162,5.54969 -1.14337,2.42719 -1.71563,5.37905 -1.71563,8.85791l0 33.7601c0,3.47886 0.572264,6.41563 1.71563,8.84282 1.14453,2.42719 2.84507,4.28211 5.10162,5.56478 2.25655,1.26757 5.05519,1.90136 8.39359,1.91645 3.33956,-0.0150901 6.13704,-0.648876 8.39359,-1.91645 2.25772,-1.28266 3.95826,-3.13759 5.10162,-5.56478 1.14337,-2.42719 1.71563,-5.36396 1.71563,-8.84282l0 -20.5899 -14.2834 0 0 9.27463z"/>
    <polygon id="_24409897612345678910111213" class="fil11" points="980.986,120.51 998.609,120.51 998.609,111.235 970.784,111.235 970.784,176.16 998.609,176.16 998.609,166.885 980.986,166.885 980.986,147.872 994.992,147.872 994.992,138.596 980.986,138.596 "/>
    <path id="_2440989761234567891011121314" class="fil11" d="M1036.64 176.16c-0.494492,-1.1898 -0.80442,-2.41094 -0.942553,-3.66342 -0.124203,-1.25248 -0.185725,-2.65935 -0.170635,-4.22059l0 -10.0164c0.0150901,-2.25772 -0.200815,-4.2972 -0.618695,-6.09061 -0.43181,-1.80849 -1.14337,-3.35465 -2.13235,-4.63731 -0.990145,-1.28382 -2.33433,-2.2879 -4.01978,-2.99945l0 -0.185725c2.27281,-1.06676 3.94201,-2.67444 5.0401,-4.83813 1.09694,-2.16369 1.63786,-4.90081 1.63786,-8.23921l0 -5.10162c0.0162509,-3.3384 -0.509582,-6.12079 -1.57634,-8.33207 -1.05167,-2.21012 -2.68953,-3.86423 -4.9159,-4.96117 -2.24146,-1.0981 -5.11671,-1.63902 -8.62575,-1.63902l-15.3966 0 0 64.9247 10.2021 0 0 -26.4333 3.52529 0c1.545,-0.0162509 2.81257,0.262336 3.78646,0.803259 0.990145,0.540923 1.71679,1.42195 2.19619,2.628 0.463151,1.22114 0.695307,2.82882 0.695307,4.82304l0 10.2021c0,1.314 0.0301803,2.39701 0.0615213,3.2467 0.0464312,0.84969 0.107952,1.54616 0.200815,2.10217 0.0777722,0.540923 0.170635,1.02032 0.293677,1.42195 0.107952,0.40279 0.232156,0.80442 0.371449,1.20605l10.3878 0zm-16.6026 -55.6501c1.7934,-0.0150901 3.1225,0.525833 3.95826,1.59259 0.8346,1.08185 1.25132,2.78239 1.23623,5.08537l0 6.40054c0,1.71563 -0.247246,3.07606 -0.741738,4.08014 -0.494492,1.00523 -1.19096,1.73188 -2.10217,2.16485 -0.912372,0.41672 -2.01047,0.633785 -3.27804,0.617535l-3.98844 0 0 -19.941 4.9159 0z"/>
    <polygon id="_244098976123456789101112131415" class="fil11" points="1042.2,176.16 1052.4,176.16 1052.4,111.235 1042.2,111.235 "/>
    <path id="_24409897612345678910111213141516" class="fil11" d="M1071.42 176.16c0.81951,0.0928623 1.62277,0.139294 2.39585,0.154384 0.773079,0.031341 1.60768,0.031341 2.52005,0.031341 1.94779,0.0150901 3.78762,-0.232156 5.53343,-0.726648 1.76322,-0.494492 3.30822,-1.36043 4.6849,-2.56648 1.35927,-1.20489 2.44228,-2.87525 3.23045,-5.00876 0.788169,-2.11726 1.1898,-4.7917 1.20605,-8.02214l0 -48.7864 -10.2032 0 0 49.5281c-0.0150901,1.65411 -0.277426,2.93677 -0.788169,3.83405 -0.525833,0.911212 -1.22114,1.52991 -2.10217,1.88511 -0.865941,0.340108 -1.85493,0.510743 -2.95302,0.495653 -0.556013,0 -1.14337,0 -1.76206,-0.0162509 -0.602444,0 -1.1898,-0.0301803 -1.76206,-0.0766114l0 9.27463z"/>
    <polygon id="_2440989761234567891011121314151617" class="fil11" points="1108.14,120.51 1125.77,120.51 1125.77,111.235 1097.94,111.235 1097.94,176.16 1125.77,176.16 1125.77,166.885 1108.14,166.885 1108.14,147.872 1122.15,147.872 1122.15,138.596 1108.14,138.596 "/>
    <polygon id="_244098976123456789101112131415161718" class="fil11" points="1146.17,111.235 1131.98,111.235 1131.98,176.16 1140.88,176.16 1140.88,130.249 1141.07,130.249 1148.49,176.16 1158.14,176.16 1165,129.6 1165.18,129.6 1165.18,176.16 1174.83,176.16 1174.83,111.235 1160.64,111.235 1153.78,157.332 1153.59,157.332 "/>
    <path id="_24409897612345678910111213141516171819" class="fil11" d="M1197.65 111.235l-15.3966 0 0 64.9247 16.0455 0c5.11671,-0.0150901 8.96586,-1.32909 11.5788,-3.94201 2.59666,-2.61175 3.91067,-6.43072 3.91067,-11.4546l0 -5.28619c0.031341,-3.44751 -0.556013,-6.33785 -1.74697,-8.68843 -1.1898,-2.33433 -3.15268,-4.04996 -5.85845,-5.1318l0 -0.185725c2.25655,-1.05051 3.92692,-2.65818 4.99367,-4.7917 1.0656,-2.13351 1.60768,-4.86947 1.59143,-8.19278l0 -2.31924c0.0162509,-3.3384 -0.509582,-6.12079 -1.57634,-8.33207 -1.05167,-2.21012 -2.68953,-3.86423 -4.9159,-4.96117 -2.24146,-1.0981 -5.11671,-1.63902 -8.62575,-1.63902l0 0zm-0.648876 35.7091c1.545,-0.0162509 2.79748,0.215905 3.77137,0.695307 0.973894,0.494492 1.68545,1.314 2.13351,2.45737 0.463151,1.15962 0.680217,2.73596 0.680217,4.73018l0 5.65764c0,1.59259 -0.200815,2.86016 -0.603605,3.80271 -0.40163,0.943713 -1.00407,1.60768 -1.79224,2.01047 -0.773079,0.40163 -1.74697,0.602444 -2.8915,0.587354l-5.84336 0 0 -19.941 4.54561 0zm0.370289 -26.4344c1.7934,-0.0150901 3.1225,0.525833 3.95826,1.59259 0.8346,1.08185 1.25132,2.78239 1.23623,5.08537l0 3.61699c0,1.71679 -0.247246,3.07723 -0.741738,4.0813 -0.494492,1.00523 -1.19096,1.73188 -2.10217,2.16485 -0.912372,0.41672 -2.01047,0.633785 -3.27804,0.617535l-3.98844 0 0 -17.1586 4.9159 0z"/>
    <polygon id="_2440989761234567891011121314151617181920" class="fil11" points="1230.11,120.51 1247.73,120.51 1247.73,111.235 1219.91,111.235 1219.91,176.16 1247.73,176.16 1247.73,166.885 1230.11,166.885 1230.11,147.872 1244.12,147.872 1244.12,138.596 1230.11,138.596 "/>
    <path id="_244098976123456789101112131415161718192021" class="fil11" d="M1285.76 176.16c-0.494492,-1.1898 -0.80442,-2.41094 -0.942553,-3.66342 -0.124203,-1.25248 -0.185725,-2.65935 -0.170635,-4.22059l0 -10.0164c0.0150901,-2.25772 -0.200815,-4.2972 -0.618695,-6.09061 -0.43181,-1.80849 -1.14337,-3.35465 -2.13235,-4.63731 -0.990145,-1.28382 -2.33433,-2.2879 -4.01978,-2.99945l0 -0.185725c2.27281,-1.06676 3.94201,-2.67444 5.0401,-4.83813 1.09694,-2.16369 1.63786,-4.90081 1.63786,-8.23921l0 -5.10162c0.0162509,-3.3384 -0.509582,-6.12079 -1.57634,-8.33207 -1.05167,-2.21012 -2.68953,-3.86423 -4.9159,-4.96117 -2.24146,-1.0981 -5.11671,-1.63902 -8.62575,-1.63902l-15.3966 0 0 64.9247 10.2021 0 0 -26.4333 3.52529 0c1.545,-0.0162509 2.81257,0.262336 3.78646,0.803259 0.990145,0.540923 1.71679,1.42195 2.19619,2.628 0.463151,1.22114 0.695307,2.82882 0.695307,4.82304l0 10.2021c0,1.314 0.0301803,2.39701 0.0615213,3.2467 0.0464312,0.84969 0.107952,1.54616 0.200815,2.10217 0.0777722,0.540923 0.170635,1.02032 0.293677,1.42195 0.107952,0.40279 0.232156,0.80442 0.371449,1.20605l10.3878 0zm-16.6026 -55.6501c1.7934,-0.0150901 3.1225,0.525833 3.95826,1.59259 0.8346,1.08185 1.25132,2.78239 1.23623,5.08537l0 6.40054c0,1.71563 -0.247246,3.07606 -0.741738,4.08014 -0.494492,1.00523 -1.19096,1.73188 -2.10217,2.16485 -0.912372,0.41672 -2.01047,0.633785 -3.27804,0.617535l-3.98844 0 0 -19.941 4.9159 0z"/>
   </g>
  </g>
 </g>
</svg>
